<?xml version="1.0" encoding="UTF-8" standalone="no"?>
<!DOCTYPE svg PUBLIC "-//W3C//DTD SVG 1.1//EN"
 "http://www.w3.org/Graphics/SVG/1.1/DTD/svg11.dtd">
<!-- Generated by graphviz version 2.50.0 (0)
 -->
<!-- Pages: 1 -->
<svg width="350pt" height="427pt"
 viewBox="0.00 0.00 350.00 427.00" xmlns="http://www.w3.org/2000/svg" xmlns:xlink="http://www.w3.org/1999/xlink">
<g id="graph0" class="graph" transform="scale(1 1) rotate(0) translate(4 423)">
<polygon fill="white" stroke="transparent" points="-4,4 -4,-423 346,-423 346,4 -4,4"/>
<!-- 0 -->
<g id="node1" class="node">
<title>0</title>
<path fill="none" stroke="#4d4d4d" stroke-width="3" d="M188.33,-419C188.33,-419 153.67,-419 153.67,-419 148.83,-419 144,-414.17 144,-409.33 144,-409.33 144,-399.67 144,-399.67 144,-394.83 148.83,-390 153.67,-390 153.67,-390 188.33,-390 188.33,-390 193.17,-390 198,-394.83 198,-399.67 198,-399.67 198,-409.33 198,-409.33 198,-414.17 193.17,-419 188.33,-419"/>
<text text-anchor="middle" x="171" y="-398.9" font-family="Helvetica,sans-Serif" font-size="22.00">C</text>
</g>
<!-- 1 -->
<g id="node2" class="node">
<title>1</title>
<path fill="none" stroke="#4d4d4d" stroke-width="3" d="M152.33,-354C152.33,-354 117.67,-354 117.67,-354 112.83,-354 108,-349.17 108,-344.33 108,-344.33 108,-334.67 108,-334.67 108,-329.83 112.83,-325 117.67,-325 117.67,-325 152.33,-325 152.33,-325 157.17,-325 162,-329.83 162,-334.67 162,-334.67 162,-344.33 162,-344.33 162,-349.17 157.17,-354 152.33,-354"/>
<text text-anchor="middle" x="135" y="-333.9" font-family="Helvetica,sans-Serif" font-size="22.00">C</text>
</g>
<!-- 0&#45;&gt;1 -->
<g id="edge1" class="edge">
<title>0&#45;&gt;1</title>
<path fill="none" stroke="#4d4d4d" stroke-width="1.5" d="M163.19,-389.83C158.42,-381.49 152.24,-370.67 146.88,-361.28"/>
<polygon fill="#4d4d4d" stroke="#4d4d4d" stroke-width="1.5" points="149.2,-359.7 142.8,-354.14 144.33,-362.48 149.2,-359.7"/>
</g>
<!-- 2 -->
<g id="node3" class="node">
<title>2</title>
<path fill="none" stroke="#4d4d4d" stroke-width="3" d="M224.33,-354C224.33,-354 189.67,-354 189.67,-354 184.83,-354 180,-349.17 180,-344.33 180,-344.33 180,-334.67 180,-334.67 180,-329.83 184.83,-325 189.67,-325 189.67,-325 224.33,-325 224.33,-325 229.17,-325 234,-329.83 234,-334.67 234,-334.67 234,-344.33 234,-344.33 234,-349.17 229.17,-354 224.33,-354"/>
<text text-anchor="middle" x="207" y="-333.9" font-family="Helvetica,sans-Serif" font-size="22.00">C</text>
</g>
<!-- 0&#45;&gt;2 -->
<g id="edge2" class="edge">
<title>0&#45;&gt;2</title>
<path fill="none" stroke="#4d4d4d" stroke-width="1.5" d="M178.81,-389.83C183.58,-381.49 189.76,-370.67 195.12,-361.28"/>
<polygon fill="#4d4d4d" stroke="#4d4d4d" stroke-width="1.5" points="197.67,-362.48 199.2,-354.14 192.8,-359.7 197.67,-362.48"/>
</g>
<!-- 3 -->
<g id="node4" class="node">
<title>3</title>
<path fill="none" stroke="#4d4d4d" stroke-width="3" d="M116.33,-289C116.33,-289 81.67,-289 81.67,-289 76.83,-289 72,-284.17 72,-279.33 72,-279.33 72,-269.67 72,-269.67 72,-264.83 76.83,-260 81.67,-260 81.67,-260 116.33,-260 116.33,-260 121.17,-260 126,-264.83 126,-269.67 126,-269.67 126,-279.33 126,-279.33 126,-284.17 121.17,-289 116.33,-289"/>
<text text-anchor="middle" x="99" y="-268.9" font-family="Helvetica,sans-Serif" font-size="22.00">C</text>
</g>
<!-- 1&#45;&gt;3 -->
<g id="edge3" class="edge">
<title>1&#45;&gt;3</title>
<path fill="none" stroke="#4d4d4d" stroke-width="1.5" d="M127.19,-324.83C122.42,-316.49 116.24,-305.67 110.88,-296.28"/>
<polygon fill="#4d4d4d" stroke="#4d4d4d" stroke-width="1.5" points="113.2,-294.7 106.8,-289.14 108.33,-297.48 113.2,-294.7"/>
</g>
<!-- 4 -->
<g id="node5" class="node">
<title>4</title>
<path fill="none" stroke="red" stroke-width="3" d="M188.33,-289C188.33,-289 153.67,-289 153.67,-289 148.83,-289 144,-284.17 144,-279.33 144,-279.33 144,-269.67 144,-269.67 144,-264.83 148.83,-260 153.67,-260 153.67,-260 188.33,-260 188.33,-260 193.17,-260 198,-264.83 198,-269.67 198,-269.67 198,-279.33 198,-279.33 198,-284.17 193.17,-289 188.33,-289"/>
<text text-anchor="middle" x="171" y="-268.9" font-family="Helvetica,sans-Serif" font-size="22.00">C</text>
</g>
<!-- 1&#45;&gt;4 -->
<g id="edge4" class="edge">
<title>1&#45;&gt;4</title>
<path fill="none" stroke="#4d4d4d" stroke-width="1.5" d="M142.81,-324.83C147.58,-316.49 153.76,-305.67 159.12,-296.28"/>
<polygon fill="#4d4d4d" stroke="#4d4d4d" stroke-width="1.5" points="161.67,-297.48 163.2,-289.14 156.8,-294.7 161.67,-297.48"/>
</g>
<!-- 2&#45;&gt;4 -->
<g id="edge5" class="edge">
<title>2&#45;&gt;4</title>
<path fill="none" stroke="#4d4d4d" stroke-width="1.5" d="M199.19,-324.83C194.42,-316.49 188.24,-305.67 182.88,-296.28"/>
<polygon fill="#4d4d4d" stroke="#4d4d4d" stroke-width="1.5" points="185.2,-294.7 178.8,-289.14 180.33,-297.48 185.2,-294.7"/>
</g>
<!-- 5 -->
<g id="node6" class="node">
<title>5</title>
<path fill="none" stroke="#4d4d4d" stroke-width="3" d="M260.33,-289C260.33,-289 225.67,-289 225.67,-289 220.83,-289 216,-284.17 216,-279.33 216,-279.33 216,-269.67 216,-269.67 216,-264.83 220.83,-260 225.67,-260 225.67,-260 260.33,-260 260.33,-260 265.17,-260 270,-264.83 270,-269.67 270,-269.67 270,-279.33 270,-279.33 270,-284.17 265.17,-289 260.33,-289"/>
<text text-anchor="middle" x="243" y="-268.9" font-family="Helvetica,sans-Serif" font-size="22.00">C</text>
</g>
<!-- 2&#45;&gt;5 -->
<g id="edge6" class="edge">
<title>2&#45;&gt;5</title>
<path fill="none" stroke="#4d4d4d" stroke-width="1.5" d="M214.81,-324.83C219.58,-316.49 225.76,-305.67 231.12,-296.28"/>
<polygon fill="#4d4d4d" stroke="#4d4d4d" stroke-width="1.5" points="233.67,-297.48 235.2,-289.14 228.8,-294.7 233.67,-297.48"/>
</g>
<!-- 6 -->
<g id="node7" class="node">
<title>6</title>
<path fill="none" stroke="#4d4d4d" stroke-width="3" d="M80.33,-224C80.33,-224 45.67,-224 45.67,-224 40.83,-224 36,-219.17 36,-214.33 36,-214.33 36,-204.67 36,-204.67 36,-199.83 40.83,-195 45.67,-195 45.67,-195 80.33,-195 80.33,-195 85.17,-195 90,-199.83 90,-204.67 90,-204.67 90,-214.33 90,-214.33 90,-219.17 85.17,-224 80.33,-224"/>
<text text-anchor="middle" x="63" y="-203.9" font-family="Helvetica,sans-Serif" font-size="22.00">C</text>
</g>
<!-- 3&#45;&gt;6 -->
<g id="edge7" class="edge">
<title>3&#45;&gt;6</title>
<path fill="none" stroke="#4d4d4d" stroke-width="1.5" d="M91.19,-259.83C86.42,-251.49 80.24,-240.67 74.88,-231.28"/>
<polygon fill="#4d4d4d" stroke="#4d4d4d" stroke-width="1.5" points="77.2,-229.7 70.8,-224.14 72.33,-232.48 77.2,-229.7"/>
</g>
<!-- 7 -->
<g id="node8" class="node">
<title>7</title>
<path fill="none" stroke="red" stroke-width="3" d="M152.33,-224C152.33,-224 117.67,-224 117.67,-224 112.83,-224 108,-219.17 108,-214.33 108,-214.33 108,-204.67 108,-204.67 108,-199.83 112.83,-195 117.67,-195 117.67,-195 152.33,-195 152.33,-195 157.17,-195 162,-199.83 162,-204.67 162,-204.67 162,-214.33 162,-214.33 162,-219.17 157.17,-224 152.33,-224"/>
<text text-anchor="middle" x="135" y="-203.9" font-family="Helvetica,sans-Serif" font-size="22.00">C</text>
</g>
<!-- 3&#45;&gt;7 -->
<g id="edge8" class="edge">
<title>3&#45;&gt;7</title>
<path fill="none" stroke="#4d4d4d" stroke-width="1.5" d="M106.81,-259.83C111.58,-251.49 117.76,-240.67 123.12,-231.28"/>
<polygon fill="#4d4d4d" stroke="#4d4d4d" stroke-width="1.5" points="125.67,-232.48 127.2,-224.14 120.8,-229.7 125.67,-232.48"/>
</g>
<!-- 4&#45;&gt;7 -->
<g id="edge9" class="edge">
<title>4&#45;&gt;7</title>
<path fill="none" stroke="#4d4d4d" stroke-width="1.5" d="M163.19,-259.83C158.42,-251.49 152.24,-240.67 146.88,-231.28"/>
<polygon fill="#4d4d4d" stroke="#4d4d4d" stroke-width="1.5" points="149.2,-229.7 142.8,-224.14 144.33,-232.48 149.2,-229.7"/>
</g>
<!-- 8 -->
<g id="node9" class="node">
<title>8</title>
<path fill="none" stroke="red" stroke-width="3" d="M224.33,-224C224.33,-224 189.67,-224 189.67,-224 184.83,-224 180,-219.17 180,-214.33 180,-214.33 180,-204.67 180,-204.67 180,-199.83 184.83,-195 189.67,-195 189.67,-195 224.33,-195 224.33,-195 229.17,-195 234,-199.83 234,-204.67 234,-204.67 234,-214.33 234,-214.33 234,-219.17 229.17,-224 224.33,-224"/>
<text text-anchor="middle" x="207" y="-203.9" font-family="Helvetica,sans-Serif" font-size="22.00">C</text>
</g>
<!-- 4&#45;&gt;8 -->
<g id="edge10" class="edge">
<title>4&#45;&gt;8</title>
<path fill="none" stroke="#4d4d4d" stroke-width="1.5" d="M178.81,-259.83C183.58,-251.49 189.76,-240.67 195.12,-231.28"/>
<polygon fill="#4d4d4d" stroke="#4d4d4d" stroke-width="1.5" points="197.67,-232.48 199.2,-224.14 192.8,-229.7 197.67,-232.48"/>
</g>
<!-- 5&#45;&gt;8 -->
<g id="edge11" class="edge">
<title>5&#45;&gt;8</title>
<path fill="none" stroke="#4d4d4d" stroke-width="1.5" d="M235.19,-259.83C230.42,-251.49 224.24,-240.67 218.88,-231.28"/>
<polygon fill="#4d4d4d" stroke="#4d4d4d" stroke-width="1.5" points="221.2,-229.7 214.8,-224.14 216.33,-232.48 221.2,-229.7"/>
</g>
<!-- 9 -->
<g id="node10" class="node">
<title>9</title>
<path fill="none" stroke="#4d4d4d" stroke-width="3" d="M296.33,-224C296.33,-224 261.67,-224 261.67,-224 256.83,-224 252,-219.17 252,-214.33 252,-214.33 252,-204.67 252,-204.67 252,-199.83 256.83,-195 261.67,-195 261.67,-195 296.33,-195 296.33,-195 301.17,-195 306,-199.83 306,-204.67 306,-204.67 306,-214.33 306,-214.33 306,-219.17 301.17,-224 296.33,-224"/>
<text text-anchor="middle" x="279" y="-203.9" font-family="Helvetica,sans-Serif" font-size="22.00">C</text>
</g>
<!-- 5&#45;&gt;9 -->
<g id="edge12" class="edge">
<title>5&#45;&gt;9</title>
<path fill="none" stroke="#4d4d4d" stroke-width="1.5" d="M250.81,-259.83C255.58,-251.49 261.76,-240.67 267.12,-231.28"/>
<polygon fill="#4d4d4d" stroke="#4d4d4d" stroke-width="1.5" points="269.67,-232.48 271.2,-224.14 264.8,-229.7 269.67,-232.48"/>
</g>
<!-- 10 -->
<g id="node11" class="node">
<title>10</title>
<path fill="none" stroke="blue" stroke-width="3" d="M44.33,-159C44.33,-159 9.67,-159 9.67,-159 4.83,-159 0,-154.17 0,-149.33 0,-149.33 0,-139.67 0,-139.67 0,-134.83 4.83,-130 9.67,-130 9.67,-130 44.33,-130 44.33,-130 49.17,-130 54,-134.83 54,-139.67 54,-139.67 54,-149.33 54,-149.33 54,-154.17 49.17,-159 44.33,-159"/>
<text text-anchor="middle" x="27" y="-138.9" font-family="Helvetica,sans-Serif" font-size="22.00">C</text>
</g>
<!-- 6&#45;&gt;10 -->
<g id="edge13" class="edge">
<title>6&#45;&gt;10</title>
<path fill="none" stroke="#4d4d4d" stroke-width="1.5" d="M55.19,-194.83C50.42,-186.49 44.24,-175.67 38.88,-166.28"/>
<polygon fill="#4d4d4d" stroke="#4d4d4d" stroke-width="1.5" points="41.2,-164.7 34.8,-159.14 36.33,-167.48 41.2,-164.7"/>
</g>
<!-- 11 -->
<g id="node12" class="node">
<title>11</title>
<path fill="none" stroke="red" stroke-width="3" d="M116.33,-159C116.33,-159 81.67,-159 81.67,-159 76.83,-159 72,-154.17 72,-149.33 72,-149.33 72,-139.67 72,-139.67 72,-134.83 76.83,-130 81.67,-130 81.67,-130 116.33,-130 116.33,-130 121.17,-130 126,-134.83 126,-139.67 126,-139.67 126,-149.33 126,-149.33 126,-154.17 121.17,-159 116.33,-159"/>
<text text-anchor="middle" x="99" y="-138.9" font-family="Helvetica,sans-Serif" font-size="22.00">C</text>
</g>
<!-- 6&#45;&gt;11 -->
<g id="edge14" class="edge">
<title>6&#45;&gt;11</title>
<path fill="none" stroke="#4d4d4d" stroke-width="1.5" d="M70.81,-194.83C75.58,-186.49 81.76,-175.67 87.12,-166.28"/>
<polygon fill="#4d4d4d" stroke="#4d4d4d" stroke-width="1.5" points="89.67,-167.48 91.2,-159.14 84.8,-164.7 89.67,-167.48"/>
</g>
<!-- 7&#45;&gt;11 -->
<g id="edge15" class="edge">
<title>7&#45;&gt;11</title>
<path fill="none" stroke="#4d4d4d" stroke-width="1.5" d="M127.19,-194.83C122.42,-186.49 116.24,-175.67 110.88,-166.28"/>
<polygon fill="#4d4d4d" stroke="#4d4d4d" stroke-width="1.5" points="113.2,-164.7 106.8,-159.14 108.33,-167.48 113.2,-164.7"/>
</g>
<!-- 12 -->
<g id="node13" class="node">
<title>12</title>
<path fill="none" stroke="red" stroke-width="3" d="M188.33,-159C188.33,-159 153.67,-159 153.67,-159 148.83,-159 144,-154.17 144,-149.33 144,-149.33 144,-139.67 144,-139.67 144,-134.83 148.83,-130 153.67,-130 153.67,-130 188.33,-130 188.33,-130 193.17,-130 198,-134.83 198,-139.67 198,-139.67 198,-149.33 198,-149.33 198,-154.17 193.17,-159 188.33,-159"/>
<text text-anchor="middle" x="171" y="-138.9" font-family="Helvetica,sans-Serif" font-size="22.00">C</text>
</g>
<!-- 7&#45;&gt;12 -->
<g id="edge16" class="edge">
<title>7&#45;&gt;12</title>
<path fill="none" stroke="#4d4d4d" stroke-width="1.5" d="M142.81,-194.83C147.58,-186.49 153.76,-175.67 159.12,-166.28"/>
<polygon fill="#4d4d4d" stroke="#4d4d4d" stroke-width="1.5" points="161.67,-167.48 163.2,-159.14 156.8,-164.7 161.67,-167.48"/>
</g>
<!-- 8&#45;&gt;12 -->
<g id="edge17" class="edge">
<title>8&#45;&gt;12</title>
<path fill="none" stroke="#4d4d4d" stroke-width="1.5" d="M199.19,-194.83C194.42,-186.49 188.24,-175.67 182.88,-166.28"/>
<polygon fill="#4d4d4d" stroke="#4d4d4d" stroke-width="1.5" points="185.2,-164.7 178.8,-159.14 180.33,-167.48 185.2,-164.7"/>
</g>
<!-- 13 -->
<g id="node14" class="node">
<title>13</title>
<path fill="none" stroke="red" stroke-width="3" d="M260.33,-159C260.33,-159 225.67,-159 225.67,-159 220.83,-159 216,-154.17 216,-149.33 216,-149.33 216,-139.67 216,-139.67 216,-134.83 220.83,-130 225.67,-130 225.67,-130 260.33,-130 260.33,-130 265.17,-130 270,-134.83 270,-139.67 270,-139.67 270,-149.33 270,-149.33 270,-154.17 265.17,-159 260.33,-159"/>
<text text-anchor="middle" x="243" y="-138.9" font-family="Helvetica,sans-Serif" font-size="22.00">C</text>
</g>
<!-- 8&#45;&gt;13 -->
<g id="edge18" class="edge">
<title>8&#45;&gt;13</title>
<path fill="none" stroke="#4d4d4d" stroke-width="1.5" d="M214.81,-194.83C219.58,-186.49 225.76,-175.67 231.12,-166.28"/>
<polygon fill="#4d4d4d" stroke="#4d4d4d" stroke-width="1.5" points="233.67,-167.48 235.2,-159.14 228.8,-164.7 233.67,-167.48"/>
</g>
<!-- 9&#45;&gt;13 -->
<g id="edge19" class="edge">
<title>9&#45;&gt;13</title>
<path fill="none" stroke="#4d4d4d" stroke-width="1.5" d="M271.19,-194.83C266.42,-186.49 260.24,-175.67 254.88,-166.28"/>
<polygon fill="#4d4d4d" stroke="#4d4d4d" stroke-width="1.5" points="257.2,-164.7 250.8,-159.14 252.33,-167.48 257.2,-164.7"/>
</g>
<!-- 14 -->
<g id="node15" class="node">
<title>14</title>
<path fill="none" stroke="blue" stroke-width="3" d="M332.33,-159C332.33,-159 297.67,-159 297.67,-159 292.83,-159 288,-154.17 288,-149.33 288,-149.33 288,-139.67 288,-139.67 288,-134.83 292.83,-130 297.67,-130 297.67,-130 332.33,-130 332.33,-130 337.17,-130 342,-134.83 342,-139.67 342,-139.67 342,-149.33 342,-149.33 342,-154.17 337.17,-159 332.33,-159"/>
<text text-anchor="middle" x="315" y="-138.9" font-family="Helvetica,sans-Serif" font-size="22.00">G</text>
</g>
<!-- 9&#45;&gt;14 -->
<g id="edge20" class="edge">
<title>9&#45;&gt;14</title>
<path fill="none" stroke="#4d4d4d" stroke-width="1.5" d="M286.81,-194.83C291.58,-186.49 297.76,-175.67 303.12,-166.28"/>
<polygon fill="#4d4d4d" stroke="#4d4d4d" stroke-width="1.5" points="305.67,-167.48 307.2,-159.14 300.8,-164.7 305.67,-167.48"/>
</g>
<!-- 15 -->
<g id="node16" class="node">
<title>15</title>
<path fill="none" stroke="blue" stroke-width="3" d="M80.33,-94C80.33,-94 45.67,-94 45.67,-94 40.83,-94 36,-89.17 36,-84.33 36,-84.33 36,-74.67 36,-74.67 36,-69.83 40.83,-65 45.67,-65 45.67,-65 80.33,-65 80.33,-65 85.17,-65 90,-69.83 90,-74.67 90,-74.67 90,-84.33 90,-84.33 90,-89.17 85.17,-94 80.33,-94"/>
<text text-anchor="middle" x="63" y="-73.9" font-family="Helvetica,sans-Serif" font-size="22.00">A</text>
</g>
<!-- 11&#45;&gt;15 -->
<g id="edge21" class="edge">
<title>11&#45;&gt;15</title>
<path fill="none" stroke="#4d4d4d" stroke-width="1.5" d="M91.19,-129.83C86.42,-121.49 80.24,-110.67 74.88,-101.28"/>
<polygon fill="#4d4d4d" stroke="#4d4d4d" stroke-width="1.5" points="77.2,-99.7 70.8,-94.14 72.33,-102.48 77.2,-99.7"/>
</g>
<!-- 16 -->
<g id="node17" class="node">
<title>16</title>
<path fill="none" stroke="red" stroke-width="3" d="M152.33,-94C152.33,-94 117.67,-94 117.67,-94 112.83,-94 108,-89.17 108,-84.33 108,-84.33 108,-74.67 108,-74.67 108,-69.83 112.83,-65 117.67,-65 117.67,-65 152.33,-65 152.33,-65 157.17,-65 162,-69.83 162,-74.67 162,-74.67 162,-84.33 162,-84.33 162,-89.17 157.17,-94 152.33,-94"/>
<text text-anchor="middle" x="135" y="-73.9" font-family="Helvetica,sans-Serif" font-size="22.00">C</text>
</g>
<!-- 11&#45;&gt;16 -->
<g id="edge22" class="edge">
<title>11&#45;&gt;16</title>
<path fill="none" stroke="#4d4d4d" stroke-width="1.5" d="M106.81,-129.83C111.58,-121.49 117.76,-110.67 123.12,-101.28"/>
<polygon fill="#4d4d4d" stroke="#4d4d4d" stroke-width="1.5" points="125.67,-102.48 127.2,-94.14 120.8,-99.7 125.67,-102.48"/>
</g>
<!-- 12&#45;&gt;16 -->
<g id="edge23" class="edge">
<title>12&#45;&gt;16</title>
<path fill="none" stroke="#4d4d4d" stroke-width="1.5" d="M163.19,-129.83C158.42,-121.49 152.24,-110.67 146.88,-101.28"/>
<polygon fill="#4d4d4d" stroke="#4d4d4d" stroke-width="1.5" points="149.2,-99.7 142.8,-94.14 144.33,-102.48 149.2,-99.7"/>
</g>
<!-- 17 -->
<g id="node18" class="node">
<title>17</title>
<path fill="none" stroke="red" stroke-width="3" d="M224.33,-94C224.33,-94 189.67,-94 189.67,-94 184.83,-94 180,-89.17 180,-84.33 180,-84.33 180,-74.67 180,-74.67 180,-69.83 184.83,-65 189.67,-65 189.67,-65 224.33,-65 224.33,-65 229.17,-65 234,-69.83 234,-74.67 234,-74.67 234,-84.33 234,-84.33 234,-89.17 229.17,-94 224.33,-94"/>
<text text-anchor="middle" x="207" y="-73.9" font-family="Helvetica,sans-Serif" font-size="22.00">C</text>
</g>
<!-- 12&#45;&gt;17 -->
<g id="edge24" class="edge">
<title>12&#45;&gt;17</title>
<path fill="none" stroke="#4d4d4d" stroke-width="1.5" d="M178.81,-129.83C183.58,-121.49 189.76,-110.67 195.12,-101.28"/>
<polygon fill="#4d4d4d" stroke="#4d4d4d" stroke-width="1.5" points="197.67,-102.48 199.2,-94.14 192.8,-99.7 197.67,-102.48"/>
</g>
<!-- 13&#45;&gt;17 -->
<g id="edge25" class="edge">
<title>13&#45;&gt;17</title>
<path fill="none" stroke="#4d4d4d" stroke-width="1.5" d="M235.19,-129.83C230.42,-121.49 224.24,-110.67 218.88,-101.28"/>
<polygon fill="#4d4d4d" stroke="#4d4d4d" stroke-width="1.5" points="221.2,-99.7 214.8,-94.14 216.33,-102.48 221.2,-99.7"/>
</g>
<!-- 18 -->
<g id="node19" class="node">
<title>18</title>
<path fill="none" stroke="blue" stroke-width="3" d="M296.33,-94C296.33,-94 261.67,-94 261.67,-94 256.83,-94 252,-89.17 252,-84.33 252,-84.33 252,-74.67 252,-74.67 252,-69.83 256.83,-65 261.67,-65 261.67,-65 296.33,-65 296.33,-65 301.17,-65 306,-69.83 306,-74.67 306,-74.67 306,-84.33 306,-84.33 306,-89.17 301.17,-94 296.33,-94"/>
<text text-anchor="middle" x="279" y="-73.9" font-family="Helvetica,sans-Serif" font-size="22.00">T</text>
</g>
<!-- 13&#45;&gt;18 -->
<g id="edge26" class="edge">
<title>13&#45;&gt;18</title>
<path fill="none" stroke="#4d4d4d" stroke-width="1.5" d="M250.81,-129.83C255.58,-121.49 261.76,-110.67 267.12,-101.28"/>
<polygon fill="#4d4d4d" stroke="#4d4d4d" stroke-width="1.5" points="269.67,-102.48 271.2,-94.14 264.8,-99.7 269.67,-102.48"/>
</g>
<!-- 19 -->
<g id="node20" class="node">
<title>19</title>
<path fill="none" stroke="blue" stroke-width="3" d="M116.33,-29C116.33,-29 81.67,-29 81.67,-29 76.83,-29 72,-24.17 72,-19.33 72,-19.33 72,-9.67 72,-9.67 72,-4.83 76.83,0 81.67,0 81.67,0 116.33,0 116.33,0 121.17,0 126,-4.83 126,-9.67 126,-9.67 126,-19.33 126,-19.33 126,-24.17 121.17,-29 116.33,-29"/>
<text text-anchor="middle" x="99" y="-8.9" font-family="Helvetica,sans-Serif" font-size="22.00">G</text>
</g>
<!-- 16&#45;&gt;19 -->
<g id="edge27" class="edge">
<title>16&#45;&gt;19</title>
<path fill="none" stroke="#4d4d4d" stroke-width="1.5" d="M127.19,-64.83C122.42,-56.49 116.24,-45.67 110.88,-36.28"/>
<polygon fill="#4d4d4d" stroke="#4d4d4d" stroke-width="1.5" points="113.2,-34.7 106.8,-29.14 108.33,-37.48 113.2,-34.7"/>
</g>
<!-- 20 -->
<g id="node21" class="node">
<title>20</title>
<path fill="none" stroke="blue" stroke-width="3" d="M188.33,-29C188.33,-29 153.67,-29 153.67,-29 148.83,-29 144,-24.17 144,-19.33 144,-19.33 144,-9.67 144,-9.67 144,-4.83 148.83,0 153.67,0 153.67,0 188.33,0 188.33,0 193.17,0 198,-4.83 198,-9.67 198,-9.67 198,-19.33 198,-19.33 198,-24.17 193.17,-29 188.33,-29"/>
<text text-anchor="middle" x="171" y="-8.9" font-family="Helvetica,sans-Serif" font-size="22.00">C</text>
</g>
<!-- 16&#45;&gt;20 -->
<g id="edge28" class="edge">
<title>16&#45;&gt;20</title>
<path fill="none" stroke="#4d4d4d" stroke-width="1.5" d="M142.81,-64.83C147.58,-56.49 153.76,-45.67 159.12,-36.28"/>
<polygon fill="#4d4d4d" stroke="#4d4d4d" stroke-width="1.5" points="161.67,-37.48 163.2,-29.14 156.8,-34.7 161.67,-37.48"/>
</g>
<!-- 17&#45;&gt;20 -->
<g id="edge29" class="edge">
<title>17&#45;&gt;20</title>
<path fill="none" stroke="#4d4d4d" stroke-width="1.5" d="M199.19,-64.83C194.42,-56.49 188.24,-45.67 182.88,-36.28"/>
<polygon fill="#4d4d4d" stroke="#4d4d4d" stroke-width="1.5" points="185.2,-34.7 178.8,-29.14 180.33,-37.48 185.2,-34.7"/>
</g>
<!-- 21 -->
<g id="node22" class="node">
<title>21</title>
<path fill="none" stroke="blue" stroke-width="3" d="M260.33,-29C260.33,-29 225.67,-29 225.67,-29 220.83,-29 216,-24.17 216,-19.33 216,-19.33 216,-9.67 216,-9.67 216,-4.83 220.83,0 225.67,0 225.67,0 260.33,0 260.33,0 265.17,0 270,-4.83 270,-9.67 270,-9.67 270,-19.33 270,-19.33 270,-24.17 265.17,-29 260.33,-29"/>
<text text-anchor="middle" x="243" y="-8.9" font-family="Helvetica,sans-Serif" font-size="22.00">A</text>
</g>
<!-- 17&#45;&gt;21 -->
<g id="edge30" class="edge">
<title>17&#45;&gt;21</title>
<path fill="none" stroke="#4d4d4d" stroke-width="1.5" d="M214.81,-64.83C219.58,-56.49 225.76,-45.67 231.12,-36.28"/>
<polygon fill="#4d4d4d" stroke="#4d4d4d" stroke-width="1.5" points="233.67,-37.48 235.2,-29.14 228.8,-34.7 233.67,-37.48"/>
</g>
</g>
</svg>
