<?xml version="1.0" encoding="UTF-8" standalone="no"?>
<!DOCTYPE svg PUBLIC "-//W3C//DTD SVG 1.1//EN"
 "http://www.w3.org/Graphics/SVG/1.1/DTD/svg11.dtd">
<!-- Generated by graphviz version 2.50.0 (0)
 -->
<!-- Pages: 1 -->
<svg width="194pt" height="277pt"
 viewBox="0.00 0.00 193.92 277.00" xmlns="http://www.w3.org/2000/svg" xmlns:xlink="http://www.w3.org/1999/xlink">
<g id="graph0" class="graph" transform="scale(1 1) rotate(0) translate(4 273)">
<polygon fill="white" stroke="transparent" points="-4,4 -4,-273 189.92,-273 189.92,4 -4,4"/>
<g id="node1" class="node">
<title></title>
<path fill="none" stroke="black" stroke-width="3" d="M121.26,-269C121.26,-269 86.59,-269 86.59,-269 81.76,-269 76.92,-264.17 76.92,-259.33 76.92,-259.33 76.92,-249.67 76.92,-249.67 76.92,-244.83 81.76,-240 86.59,-240 86.59,-240 121.26,-240 121.26,-240 126.09,-240 130.92,-244.83 130.92,-249.67 130.92,-249.67 130.92,-259.33 130.92,-259.33 130.92,-264.17 126.09,-269 121.26,-269"/>
</g>
<!-- &#45;&gt; -->
<g id="edge1" class="edge">
<title>&#45;&gt;</title>
<path fill="none" stroke="#4d4d4d" stroke-width="1.5" d="M131.16,-261.99C140.95,-262.15 148.92,-259.66 148.92,-254.5 148.92,-250.87 144.98,-248.56 139.24,-247.57"/>
<polygon fill="#4d4d4d" stroke="#4d4d4d" stroke-width="1.5" points="139.34,-244.77 131.16,-247.01 138.95,-250.35 139.34,-244.77"/>
<text text-anchor="middle" x="167.42" y="-250.8" font-family="Times,serif" font-size="14.00">A,C,G</text>
</g>
<!-- U -->
<g id="node2" class="node">
<title>U</title>
<path fill="none" stroke="black" stroke-width="3" d="M51.26,-189C51.26,-189 16.59,-189 16.59,-189 11.76,-189 6.92,-184.17 6.92,-179.33 6.92,-179.33 6.92,-169.67 6.92,-169.67 6.92,-164.83 11.76,-160 16.59,-160 16.59,-160 51.26,-160 51.26,-160 56.09,-160 60.92,-164.83 60.92,-169.67 60.92,-169.67 60.92,-179.33 60.92,-179.33 60.92,-184.17 56.09,-189 51.26,-189"/>
<text text-anchor="middle" x="33.92" y="-168.9" font-family="Helvetica,sans-Serif" font-size="22.00">U</text>
</g>
<!-- &#45;&gt;U -->
<g id="edge2" class="edge">
<title>&#45;&gt;U</title>
<path fill="none" stroke="#4d4d4d" stroke-width="1.5" d="M80.89,-239.84C73.63,-234.83 65.94,-228.72 59.92,-222 53.22,-214.5 47.52,-204.99 43.18,-196.52"/>
<polygon fill="#4d4d4d" stroke="#4d4d4d" stroke-width="1.5" points="45.61,-195.1 39.59,-189.13 40.57,-197.55 45.61,-195.1"/>
<text text-anchor="middle" x="64.92" y="-210.8" font-family="Times,serif" font-size="14.00">U</text>
</g>
<!-- U&#45;&gt; -->
<g id="edge4" class="edge">
<title>U&#45;&gt;</title>
<path fill="none" stroke="#4d4d4d" stroke-width="1.5" d="M51.12,-189.2C57.32,-194.48 64.2,-200.75 69.92,-207 77.31,-215.07 84.59,-224.73 90.51,-233.15"/>
<polygon fill="#4d4d4d" stroke="#4d4d4d" stroke-width="1.5" points="88.29,-234.86 95.13,-239.87 92.91,-231.69 88.29,-234.86"/>
<text text-anchor="middle" x="86.92" y="-210.8" font-family="Times,serif" font-size="14.00">C</text>
</g>
<!-- U&#45;&gt;U -->
<g id="edge6" class="edge">
<title>U&#45;&gt;U</title>
<path fill="none" stroke="#4d4d4d" stroke-width="1.5" d="M61.16,-181.99C70.95,-182.15 78.92,-179.66 78.92,-174.5 78.92,-170.87 74.98,-168.56 69.24,-167.57"/>
<polygon fill="#4d4d4d" stroke="#4d4d4d" stroke-width="1.5" points="69.34,-164.77 61.16,-167.01 68.95,-170.35 69.34,-164.77"/>
<text text-anchor="middle" x="83.92" y="-170.8" font-family="Times,serif" font-size="14.00">U</text>
</g>
<!-- UA -->
<g id="node4" class="node">
<title>UA</title>
<path fill="none" stroke="black" stroke-width="3" d="M120.26,-109C120.26,-109 85.59,-109 85.59,-109 80.76,-109 75.92,-104.17 75.92,-99.33 75.92,-99.33 75.92,-89.67 75.92,-89.67 75.92,-84.83 80.76,-80 85.59,-80 85.59,-80 120.26,-80 120.26,-80 125.09,-80 129.92,-84.83 129.92,-89.67 129.92,-89.67 129.92,-99.33 129.92,-99.33 129.92,-104.17 125.09,-109 120.26,-109"/>
<text text-anchor="middle" x="102.92" y="-88.9" font-family="Helvetica,sans-Serif" font-size="22.00">UA</text>
</g>
<!-- U&#45;&gt;UA -->
<g id="edge3" class="edge">
<title>U&#45;&gt;UA</title>
<path fill="none" stroke="#4d4d4d" stroke-width="1.5" d="M57.02,-159.9C64.29,-154.89 71.97,-148.77 77.92,-142 84.5,-134.52 90.01,-125 94.16,-116.53"/>
<polygon fill="#4d4d4d" stroke="#4d4d4d" stroke-width="1.5" points="96.76,-117.57 97.58,-109.14 91.68,-115.22 96.76,-117.57"/>
<text text-anchor="middle" x="92.92" y="-130.8" font-family="Times,serif" font-size="14.00">A</text>
</g>
<!-- UG -->
<g id="node5" class="node">
<title>UG</title>
<path fill="none" stroke="black" stroke-width="3" d="M48.26,-109C48.26,-109 13.59,-109 13.59,-109 8.76,-109 3.92,-104.17 3.92,-99.33 3.92,-99.33 3.92,-89.67 3.92,-89.67 3.92,-84.83 8.76,-80 13.59,-80 13.59,-80 48.26,-80 48.26,-80 53.09,-80 57.92,-84.83 57.92,-89.67 57.92,-89.67 57.92,-99.33 57.92,-99.33 57.92,-104.17 53.09,-109 48.26,-109"/>
<text text-anchor="middle" x="30.92" y="-88.9" font-family="Helvetica,sans-Serif" font-size="22.00">UG</text>
</g>
<!-- U&#45;&gt;UG -->
<g id="edge5" class="edge">
<title>U&#45;&gt;UG</title>
<path fill="none" stroke="#4d4d4d" stroke-width="1.5" d="M15.1,-159.74C9.82,-154.8 4.75,-148.76 1.92,-142 -1.92,-132.81 2.22,-123.36 8.47,-115.4"/>
<polygon fill="#4d4d4d" stroke="#4d4d4d" stroke-width="1.5" points="10.85,-116.94 14.09,-109.1 6.67,-113.21 10.85,-116.94"/>
<text text-anchor="middle" x="6.92" y="-130.8" font-family="Times,serif" font-size="14.00">G</text>
</g>
<!-- $ -->
<g id="node3" class="node">
<title>$</title>
<path fill="none" stroke="black" stroke-width="3" d="M83.26,-29C83.26,-29 48.59,-29 48.59,-29 43.76,-29 38.92,-24.17 38.92,-19.33 38.92,-19.33 38.92,-9.67 38.92,-9.67 38.92,-4.83 43.76,0 48.59,0 48.59,0 83.26,0 83.26,0 88.09,0 92.92,-4.83 92.92,-9.67 92.92,-9.67 92.92,-19.33 92.92,-19.33 92.92,-24.17 88.09,-29 83.26,-29"/>
<text text-anchor="middle" x="65.92" y="-8.9" font-family="Helvetica,sans-Serif" font-size="22.00">$</text>
</g>
<!-- $&#45;&gt;$ -->
<g id="edge7" class="edge">
<title>$&#45;&gt;$</title>
<path fill="none" stroke="#4d4d4d" stroke-width="1.5" d="M93.16,-21.99C102.95,-22.15 110.92,-19.66 110.92,-14.5 110.92,-10.87 106.98,-8.56 101.24,-7.57"/>
<polygon fill="#4d4d4d" stroke="#4d4d4d" stroke-width="1.5" points="101.34,-4.77 93.16,-7.01 100.95,-10.35 101.34,-4.77"/>
<text text-anchor="middle" x="135.92" y="-10.8" font-family="Times,serif" font-size="14.00">A,C,G,U</text>
</g>
<!-- UA&#45;&gt; -->
<g id="edge9" class="edge">
<title>UA&#45;&gt;</title>
<path fill="none" stroke="#4d4d4d" stroke-width="1.5" d="M121.78,-109.08C127.86,-114.17 134.24,-120.35 138.92,-127 148,-139.89 148.98,-144.51 151.92,-160 157.18,-187.66 154.97,-198.87 138.92,-222 135.93,-226.32 132.23,-230.46 128.37,-234.23"/>
<polygon fill="#4d4d4d" stroke="#4d4d4d" stroke-width="1.5" points="126.25,-232.37 122.24,-239.84 130.04,-236.5 126.25,-232.37"/>
<text text-anchor="middle" x="158.92" y="-170.8" font-family="Times,serif" font-size="14.00">C</text>
</g>
<!-- UA&#45;&gt;U -->
<g id="edge10" class="edge">
<title>UA&#45;&gt;U</title>
<path fill="none" stroke="#4d4d4d" stroke-width="1.5" d="M85.68,-109.16C79.47,-114.44 72.6,-120.71 66.92,-127 59.67,-135.04 52.59,-144.69 46.86,-153.12"/>
<polygon fill="#4d4d4d" stroke="#4d4d4d" stroke-width="1.5" points="44.48,-151.63 42.39,-159.85 49.15,-154.73 44.48,-151.63"/>
<text text-anchor="middle" x="71.92" y="-130.8" font-family="Times,serif" font-size="14.00">U</text>
</g>
<!-- UA&#45;&gt;$ -->
<g id="edge8" class="edge">
<title>UA&#45;&gt;$</title>
<path fill="none" stroke="#4d4d4d" stroke-width="1.5" d="M96.48,-79.91C90.84,-68.02 82.54,-50.54 76.02,-36.79"/>
<polygon fill="#4d4d4d" stroke="#4d4d4d" stroke-width="1.5" points="78.38,-35.22 72.42,-29.19 73.32,-37.62 78.38,-35.22"/>
<text text-anchor="middle" x="98.92" y="-50.8" font-family="Times,serif" font-size="14.00">A,G</text>
</g>
<!-- UG&#45;&gt; -->
<g id="edge12" class="edge">
<title>UG&#45;&gt;</title>
<path fill="none" stroke="#4d4d4d" stroke-width="1.5" d="M58.26,-105.99C77.12,-113.49 99.25,-122.95 101.92,-127 122.81,-158.57 116.48,-204.97 110.11,-231.92"/>
<polygon fill="#4d4d4d" stroke="#4d4d4d" stroke-width="1.5" points="107.33,-231.5 108.08,-239.94 112.76,-232.88 107.33,-231.5"/>
<text text-anchor="middle" x="127.42" y="-170.8" font-family="Times,serif" font-size="14.00">C,G</text>
</g>
<!-- UG&#45;&gt;U -->
<g id="edge13" class="edge">
<title>UG&#45;&gt;U</title>
<path fill="none" stroke="#4d4d4d" stroke-width="1.5" d="M31.45,-109.19C31.9,-120.9 32.56,-137.95 33.08,-151.56"/>
<polygon fill="#4d4d4d" stroke="#4d4d4d" stroke-width="1.5" points="30.3,-152.03 33.4,-159.91 35.89,-151.81 30.3,-152.03"/>
<text text-anchor="middle" x="37.92" y="-130.8" font-family="Times,serif" font-size="14.00">U</text>
</g>
<!-- UG&#45;&gt;$ -->
<g id="edge11" class="edge">
<title>UG&#45;&gt;$</title>
<path fill="none" stroke="#4d4d4d" stroke-width="1.5" d="M37.02,-79.91C42.36,-68.02 50.2,-50.54 56.37,-36.79"/>
<polygon fill="#4d4d4d" stroke="#4d4d4d" stroke-width="1.5" points="59.06,-37.64 59.78,-29.19 53.95,-35.35 59.06,-37.64"/>
<text text-anchor="middle" x="55.92" y="-50.8" font-family="Times,serif" font-size="14.00">A</text>
</g>
</g>
</svg>
