<svg xmlns:inkscape="http://www.inkscape.org/namespaces/inkscape" xmlns:sodipodi="http://sodipodi.sourceforge.net/DTD/sodipodi-0.dtd" xmlns="http://www.w3.org/2000/svg" xmlns:svg="http://www.w3.org/2000/svg" width="142.56989" height="159.03258" version="1.1" id="svg208" sodipodi:docname="tmp_8o4reys.svg">
  <defs id="defs212"/>
  <sodipodi:namedview id="namedview210" pagecolor="#ffffff" bordercolor="#666666" borderopacity="1.0" inkscape:showpageshadow="2" inkscape:pageopacity="0.0" inkscape:pagecheckerboard="0" inkscape:deskcolor="#d1d1d1"/>
  <line x1="85.796204" y1="131.03258" x2="85.796204" y2="121.03258" stroke="#595959" stroke-width="1" id="line2"/>
  <line x1="85.796204" y1="111.03258" x2="85.796204" y2="101.03258" stroke="#595959" stroke-width="1" id="line4"/>
  <line x1="83.282715" y1="91.710266" x2="79.512566" y2="85.226921" stroke="#595959" stroke-width="1" id="line6"/>
  <line x1="72.653458" y1="78.431641" x2="63.962204" y2="73.485718" stroke="#595959" stroke-width="1" id="line8"/>
  <line x1="55.270958" y1="68.539803" x2="46.579704" y2="63.59388" stroke="#595959" stroke-width="1" id="line10"/>
  <line x1="37.234482" y1="61.184113" x2="29.735102" y2="61.278908" stroke="#595959" stroke-width="1" id="line12"/>
  <line x1="20.871731" y1="58.168575" x2="15.076096" y2="53.408298" stroke="#595959" stroke-width="1" id="line14"/>
  <line x1="10.302907" y1="45.318169" x2="8.9387856" y2="37.943295" stroke="#595959" stroke-width="1" id="line16"/>
  <line x1="10.502329" y1="28.681067" x2="14.211758" y2="22.162649" stroke="#595959" stroke-width="1" id="line18"/>
  <line x1="21.376135" y1="16.087685" x2="28.413237" y2="13.493684" stroke="#595959" stroke-width="1" id="line20"/>
  <line x1="37.806465" y1="13.465222" x2="44.859154" y2="16.016531" stroke="#595959" stroke-width="1" id="line22"/>
  <line x1="52.060211" y1="22.04797" x2="55.809074" y2="28.543789" stroke="#595959" stroke-width="1" id="line24"/>
  <line x1="62.653954" y1="35.347309" x2="71.3452" y2="40.293232" stroke="#595959" stroke-width="1" id="line26"/>
  <line x1="80.036453" y1="45.239155" x2="88.727707" y2="50.185078" stroke="#595959" stroke-width="1" id="line28"/>
  <line x1="98.073112" y1="52.611305" x2="105.57278" y2="52.541206" stroke="#595959" stroke-width="1" id="line30"/>
  <line x1="114.41943" y1="55.688477" x2="120.18971" y2="60.479481" stroke="#595959" stroke-width="1" id="line32"/>
  <line x1="124.90994" y1="68.596619" x2="126.21998" y2="75.981316" stroke="#595959" stroke-width="1" id="line34"/>
  <line x1="124.57987" y1="85.226776" x2="120.80966" y2="91.710258" stroke="#595959" stroke-width="1" id="line36"/>
  <line x1="118.2962" y1="101.03258" x2="118.2962" y2="111.03258" stroke="#595959" stroke-width="1" id="line38"/>
  <line x1="118.2962" y1="121.03258" x2="118.2962" y2="131.03258" stroke="#595959" stroke-width="1" id="line40"/>
  <line x1="90.796204" y1="136.03258" x2="113.2962" y2="136.03258" stroke="#0000ff" stroke-width="1" id="line42"/>
  <circle cx="102.0462" cy="136.03258" r="2.75" stroke="none" stroke-width="1" fill="#0000ff" id="circle44"/>
  <line x1="90.796204" y1="116.03258" x2="113.2962" y2="116.03258" stroke="#0000ff" stroke-width="1" id="line46"/>
  <circle cx="102.0462" cy="116.03258" r="2.75" stroke="none" stroke-width="1" fill="#0000ff" id="circle48"/>
  <line x1="90.796204" y1="96.032578" x2="113.2962" y2="96.032578" stroke="#0000ff" stroke-width="1" id="line50"/>
  <circle cx="102.0462" cy="96.032578" r="2.75" stroke="none" stroke-width="1" fill="#0000ff" id="circle52"/>
  <line x1="79.472046" y1="76.558983" x2="90.600372" y2="57.003662" stroke="#0000ff" stroke-width="1" id="line54"/>
  <circle cx="85.036209" cy="66.781319" r="2.75" stroke="none" stroke-width="1" fill="#0000ff" id="circle56"/>
  <line x1="62.089539" y1="66.667137" x2="73.217865" y2="47.11182" stroke="#0000ff" stroke-width="1" id="line58"/>
  <circle cx="67.653702" cy="56.889477" r="2.75" stroke="none" stroke-width="1" fill="#0000ff" id="circle60"/>
  <line x1="44.707039" y1="56.775291" x2="55.835365" y2="37.219975" stroke="#0000ff" stroke-width="1" id="line62"/>
  <circle cx="50.271202" cy="46.997631" r="2.75" stroke="none" stroke-width="1" fill="#0000ff" id="circle64"/>
  <circle cx="85.796204" cy="136.03258" r="5" stroke="none" stroke-width="1" fill="#f0f0f0" id="circle66"/>
  <circle cx="85.796204" cy="136.03258" r="5" stroke="#595959" stroke-width="1" fill="none" id="circle68"/>
  <text x="85.796204" y="139.03258" text-anchor="middle" font-family="Verdana" font-size="7.5px" fill="#000000" id="text70"/>
  <circle cx="85.796204" cy="116.03258" r="5" stroke="none" stroke-width="1" fill="#f0f0f0" id="circle72"/>
  <circle cx="85.796204" cy="116.03258" r="5" stroke="#595959" stroke-width="1" fill="none" id="circle74"/>
  <text x="85.796204" y="119.03258" text-anchor="middle" font-family="Verdana" font-size="7.5px" fill="#000000" id="text76"/>
  <circle cx="85.796204" cy="96.032578" r="5" stroke="none" stroke-width="1" fill="#f0f0f0" id="circle78"/>
  <circle cx="85.796204" cy="96.032578" r="5" stroke="#595959" stroke-width="1" fill="none" id="circle80"/>
  <text x="85.796204" y="99.032578" text-anchor="middle" font-family="Verdana" font-size="7.5px" fill="#000000" id="text82"/>
  <circle cx="76.999084" cy="80.904602" r="5" stroke="none" stroke-width="1" fill="#f0f0f0" id="circle84"/>
  <circle cx="76.999084" cy="80.904602" r="5" stroke="#595959" stroke-width="1" fill="none" id="circle86"/>
  <text x="76.999084" y="83.904602" text-anchor="middle" font-family="Verdana" font-size="7.5px" fill="#000000" id="text88"/>
  <circle cx="59.616585" cy="71.012764" r="5" stroke="none" stroke-width="1" fill="#f0f0f0" id="circle90"/>
  <circle cx="59.616585" cy="71.012764" r="5" stroke="#595959" stroke-width="1" fill="none" id="circle92"/>
  <text x="59.616585" y="74.012764" text-anchor="middle" font-family="Verdana" font-size="7.5px" fill="#000000" id="text94"/>
  <circle cx="42.234077" cy="61.120914" r="5" stroke="none" stroke-width="1" fill="#f0f0f0" id="circle96"/>
  <circle cx="42.234077" cy="61.120914" r="5" stroke="#595959" stroke-width="1" fill="none" id="circle98"/>
  <text x="42.234077" y="64.120918" text-anchor="middle" font-family="Verdana" font-size="7.5px" fill="#000000" id="text100"/>
  <circle cx="24.7355" cy="61.342102" r="5" stroke="none" stroke-width="1" fill="#f0f0f0" id="circle102"/>
  <circle cx="24.7355" cy="61.342102" r="5" stroke="#595959" stroke-width="1" fill="none" id="circle104"/>
  <text x="24.7355" y="64.342102" text-anchor="middle" font-family="Verdana" font-size="7.5px" fill="#000000" id="text106"/>
  <circle cx="11.212325" cy="50.234772" r="5" stroke="none" stroke-width="1" fill="#f0f0f0" id="circle108"/>
  <circle cx="11.212325" cy="50.234772" r="5" stroke="#595959" stroke-width="1" fill="none" id="circle110"/>
  <text x="11.212325" y="53.234772" text-anchor="middle" font-family="Verdana" font-size="7.5px" fill="#000000" id="text112"/>
  <circle cx="8.0293674" cy="33.026691" r="5" stroke="none" stroke-width="1" fill="#f0f0f0" id="circle114"/>
  <circle cx="8.0293674" cy="33.026691" r="5" stroke="#595959" stroke-width="1" fill="none" id="circle116"/>
  <text x="8.0293674" y="36.026691" text-anchor="middle" font-family="Verdana" font-size="7.5px" fill="#000000" id="text118"/>
  <circle cx="16.684719" cy="17.817022" r="5" stroke="none" stroke-width="1" fill="#f0f0f0" id="circle120"/>
  <circle cx="16.684719" cy="17.817022" r="5" stroke="#595959" stroke-width="1" fill="none" id="circle122"/>
  <text x="16.684719" y="20.817022" text-anchor="middle" font-family="Verdana" font-size="7.5px" fill="#000000" id="text124"/>
  <circle cx="33.104652" cy="11.764344" r="5" stroke="none" stroke-width="1" fill="#f0f0f0" id="circle126"/>
  <circle cx="33.104652" cy="11.764344" r="5" stroke="#595959" stroke-width="1" fill="none" id="circle128"/>
  <text x="33.104652" y="14.764345" text-anchor="middle" font-family="Verdana" font-size="7.5px" fill="#000000" id="text130"/>
  <circle cx="49.560966" cy="17.717409" r="5" stroke="none" stroke-width="1" fill="#f0f0f0" id="circle132"/>
  <circle cx="49.560966" cy="17.717409" r="5" stroke="#595959" stroke-width="1" fill="none" id="circle134"/>
  <text x="49.560966" y="20.717409" text-anchor="middle" font-family="Verdana" font-size="7.5px" fill="#000000" id="text136"/>
  <circle cx="58.308327" cy="32.874348" r="5" stroke="none" stroke-width="1" fill="#f0f0f0" id="circle138"/>
  <circle cx="58.308327" cy="32.874348" r="5" stroke="#595959" stroke-width="1" fill="none" id="circle140"/>
  <text x="58.308327" y="35.874348" text-anchor="middle" font-family="Verdana" font-size="7.5px" fill="#000000" id="text142"/>
  <circle cx="75.690826" cy="42.766193" r="5" stroke="none" stroke-width="1" fill="#f0f0f0" id="circle144"/>
  <circle cx="75.690826" cy="42.766193" r="5" stroke="#595959" stroke-width="1" fill="none" id="circle146"/>
  <text x="75.690826" y="45.766193" text-anchor="middle" font-family="Verdana" font-size="7.5px" fill="#000000" id="text148"/>
  <circle cx="93.073334" cy="52.658039" r="5" stroke="none" stroke-width="1" fill="#f0f0f0" id="circle150"/>
  <circle cx="93.073334" cy="52.658039" r="5" stroke="#595959" stroke-width="1" fill="none" id="circle152"/>
  <text x="93.073334" y="55.658039" text-anchor="middle" font-family="Verdana" font-size="7.5px" fill="#000000" id="text154"/>
  <circle cx="110.57256" cy="52.494473" r="5" stroke="none" stroke-width="1" fill="#f0f0f0" id="circle156"/>
  <circle cx="110.57256" cy="52.494473" r="5" stroke="#595959" stroke-width="1" fill="none" id="circle158"/>
  <text x="110.57256" y="55.494473" text-anchor="middle" font-family="Verdana" font-size="7.5px" fill="#000000" id="text160"/>
  <circle cx="124.03658" cy="63.673485" r="5" stroke="none" stroke-width="1" fill="#f0f0f0" id="circle162"/>
  <circle cx="124.03658" cy="63.673485" r="5" stroke="#595959" stroke-width="1" fill="none" id="circle164"/>
  <text x="124.03658" y="66.673485" text-anchor="middle" font-family="Verdana" font-size="7.5px" fill="#000000" id="text166"/>
  <circle cx="127.09335" cy="80.904449" r="5" stroke="none" stroke-width="1" fill="#f0f0f0" id="circle168"/>
  <circle cx="127.09335" cy="80.904449" r="5" stroke="#595959" stroke-width="1" fill="none" id="circle170"/>
  <text x="127.09335" y="83.904449" text-anchor="middle" font-family="Verdana" font-size="7.5px" fill="#000000" id="text172"/>
  <circle cx="118.2962" cy="96.032578" r="5" stroke="none" stroke-width="1" fill="#f0f0f0" id="circle174"/>
  <circle cx="118.2962" cy="96.032578" r="5" stroke="#595959" stroke-width="1" fill="none" id="circle176"/>
  <text x="118.2962" y="99.032578" text-anchor="middle" font-family="Verdana" font-size="7.5px" fill="#000000" id="text178"/>
  <circle cx="118.2962" cy="116.03258" r="5" stroke="none" stroke-width="1" fill="#f0f0f0" id="circle180"/>
  <circle cx="118.2962" cy="116.03258" r="5" stroke="#595959" stroke-width="1" fill="none" id="circle182"/>
  <text x="118.2962" y="119.03258" text-anchor="middle" font-family="Verdana" font-size="7.5px" fill="#000000" id="text184"/>
  <circle cx="118.2962" cy="136.03258" r="5" stroke="none" stroke-width="1" fill="#f0f0f0" id="circle186"/>
  <circle cx="118.2962" cy="136.03258" r="5" stroke="#595959" stroke-width="1" fill="none" id="circle188"/>
  <text x="118.2962" y="139.03258" text-anchor="middle" font-family="Verdana" font-size="7.5px" fill="#000000" id="text190"/>
  <line x1="85.796204" y1="143.53258" x2="85.796204" y2="148.53258" stroke="#3f3f3f" stroke-width="1" id="line192"/>
  <text x="85.796204" y="159.03258" text-anchor="middle" font-family="Verdana" font-size="7.5px" fill="#3f3f3f" id="text194">1</text>
  <line x1="11.8342" y1="12.096668" x2="8.6005192" y2="8.2830992" stroke="#3f3f3f" stroke-width="1" id="line196"/>
  <text x="3.75" y="5.5627441" text-anchor="middle" font-family="Verdana" font-size="7.5px" fill="#3f3f3f" id="text198">10</text>
  <line x1="125.7962" y1="116.03258" x2="130.7962" y2="116.03258" stroke="#3f3f3f" stroke-width="1" id="line200"/>
  <text x="138.2962" y="119.03258" text-anchor="middle" font-family="Verdana" font-size="7.5px" fill="#3f3f3f" id="text202">20</text>
  <line x1="118.2962" y1="143.53258" x2="118.2962" y2="148.53258" stroke="#3f3f3f" stroke-width="1" id="line204"/>
  <text x="118.2962" y="159.03258" text-anchor="middle" font-family="Verdana" font-size="7.5px" fill="#3f3f3f" id="text206">21</text>
</svg>