<svg xmlns:inkscape="http://www.inkscape.org/namespaces/inkscape" xmlns:sodipodi="http://sodipodi.sourceforge.net/DTD/sodipodi-0.dtd" xmlns="http://www.w3.org/2000/svg" xmlns:svg="http://www.w3.org/2000/svg" width="129.77368" height="114.45183" version="1.1" id="svg212" sodipodi:docname="tmpw1urmqdv.svg">
  <defs id="defs216"/>
  <sodipodi:namedview id="namedview214" pagecolor="#ffffff" bordercolor="#666666" borderopacity="1.0" inkscape:showpageshadow="2" inkscape:pageopacity="0.0" inkscape:pagecheckerboard="0" inkscape:deskcolor="#d1d1d1"/>
  <line x1="5.5" y1="86.451828" x2="5.5" y2="76.451828" stroke="#595959" stroke-width="1" id="line2"/>
  <line x1="5.5" y1="66.451828" x2="5.5" y2="56.451824" stroke="#595959" stroke-width="1" id="line4"/>
  <line x1="5.5" y1="46.451824" x2="5.5" y2="36.451824" stroke="#595959" stroke-width="1" id="line6"/>
  <line x1="5.7686281" y1="26.459047" x2="6.1715727" y2="18.969856" stroke="#595959" stroke-width="1" id="line8"/>
  <line x1="10.814424" y1="11.555059" x2="17.375778" y2="7.922019" stroke="#595959" stroke-width="1" id="line10"/>
  <line x1="26.124222" y1="7.922019" x2="32.685577" y2="11.555059" stroke="#595959" stroke-width="1" id="line12"/>
  <line x1="37.328426" y1="18.969856" x2="37.731373" y2="26.459047" stroke="#595959" stroke-width="1" id="line14"/>
  <line x1="38" y1="36.451824" x2="38" y2="46.451824" stroke="#595959" stroke-width="1" id="line16"/>
  <line x1="38" y1="56.451824" x2="38" y2="66.451828" stroke="#595959" stroke-width="1" id="line18"/>
  <line x1="38" y1="76.451828" x2="38" y2="86.451828" stroke="#595959" stroke-width="1" id="line20"/>
  <line x1="43" y1="91.451828" x2="50.5" y2="91.451828" stroke="#595959" stroke-width="1" id="line22"/>
  <line x1="60.5" y1="91.451828" x2="68" y2="91.451828" stroke="#595959" stroke-width="1" id="line24"/>
  <line x1="73" y1="86.451828" x2="73" y2="76.451828" stroke="#595959" stroke-width="1" id="line26"/>
  <line x1="73" y1="66.451828" x2="73" y2="56.451824" stroke="#595959" stroke-width="1" id="line28"/>
  <line x1="73.268631" y1="46.459045" x2="73.67157" y2="38.969856" stroke="#595959" stroke-width="1" id="line30"/>
  <line x1="78.314423" y1="31.555058" x2="84.875778" y2="27.92202" stroke="#595959" stroke-width="1" id="line32"/>
  <line x1="93.624222" y1="27.92202" x2="100.18558" y2="31.555058" stroke="#595959" stroke-width="1" id="line34"/>
  <line x1="104.82843" y1="38.969856" x2="105.23137" y2="46.459045" stroke="#595959" stroke-width="1" id="line36"/>
  <line x1="105.5" y1="56.451824" x2="105.5" y2="66.451828" stroke="#595959" stroke-width="1" id="line38"/>
  <line x1="105.5" y1="76.451828" x2="105.5" y2="86.451828" stroke="#595959" stroke-width="1" id="line40"/>
  <line x1="10.5" y1="91.451828" x2="33" y2="91.451828" stroke="#0000ff" stroke-width="1" id="line42"/>
  <circle cx="21.75" cy="91.451828" r="2.75" stroke="none" stroke-width="1" fill="#0000ff" id="circle44"/>
  <line x1="10.5" y1="71.451828" x2="33" y2="71.451828" stroke="#0000ff" stroke-width="1" id="line46"/>
  <circle cx="21.75" cy="71.451828" r="2.75" stroke="none" stroke-width="1" fill="#0000ff" id="circle48"/>
  <line x1="10.5" y1="51.451824" x2="33" y2="51.451824" stroke="#0000ff" stroke-width="1" id="line50"/>
  <circle cx="21.75" cy="51.451824" r="2.75" stroke="none" stroke-width="1" fill="#0000ff" id="circle52"/>
  <line x1="10.5" y1="31.451824" x2="33" y2="31.451824" stroke="#0000ff" stroke-width="1" id="line54"/>
  <circle cx="21.75" cy="31.451824" r="2.75" stroke="none" stroke-width="1" fill="#0000ff" id="circle56"/>
  <line x1="78" y1="91.451828" x2="100.5" y2="91.451828" stroke="#0000ff" stroke-width="1" id="line58"/>
  <circle cx="89.25" cy="91.451828" r="2.75" stroke="none" stroke-width="1" fill="#0000ff" id="circle60"/>
  <line x1="78" y1="71.451828" x2="100.5" y2="71.451828" stroke="#0000ff" stroke-width="1" id="line62"/>
  <circle cx="89.25" cy="71.451828" r="2.75" stroke="none" stroke-width="1" fill="#0000ff" id="circle64"/>
  <line x1="78" y1="51.451824" x2="100.5" y2="51.451824" stroke="#0000ff" stroke-width="1" id="line66"/>
  <circle cx="89.25" cy="51.451824" r="2.75" stroke="none" stroke-width="1" fill="#0000ff" id="circle68"/>
  <circle cx="5.5" cy="91.451828" r="5" stroke="none" stroke-width="1" fill="#f0f0f0" id="circle70"/>
  <circle cx="5.5" cy="91.451828" r="5" stroke="#595959" stroke-width="1" fill="none" id="circle72"/>
  <text x="5.5" y="94.451828" text-anchor="middle" font-family="Verdana" font-size="7.5px" fill="#000000" id="text74"/>
  <circle cx="5.5" cy="71.451828" r="5" stroke="none" stroke-width="1" fill="#f0f0f0" id="circle76"/>
  <circle cx="5.5" cy="71.451828" r="5" stroke="#595959" stroke-width="1" fill="none" id="circle78"/>
  <text x="5.5" y="74.451828" text-anchor="middle" font-family="Verdana" font-size="7.5px" fill="#000000" id="text80"/>
  <circle cx="5.5" cy="51.451824" r="5" stroke="none" stroke-width="1" fill="#f0f0f0" id="circle82"/>
  <circle cx="5.5" cy="51.451824" r="5" stroke="#595959" stroke-width="1" fill="none" id="circle84"/>
  <text x="5.5" y="54.451824" text-anchor="middle" font-family="Verdana" font-size="7.5px" fill="#000000" id="text86"/>
  <circle cx="5.5" cy="31.451824" r="5" stroke="none" stroke-width="1" fill="#f0f0f0" id="circle88"/>
  <circle cx="5.5" cy="31.451824" r="5" stroke="#595959" stroke-width="1" fill="none" id="circle90"/>
  <text x="5.5" y="34.451824" text-anchor="middle" font-family="Verdana" font-size="7.5px" fill="#000000" id="text92"/>
  <circle cx="6.4402008" cy="13.977077" r="5" stroke="none" stroke-width="1" fill="#f0f0f0" id="circle94"/>
  <circle cx="6.4402008" cy="13.977077" r="5" stroke="#595959" stroke-width="1" fill="none" id="circle96"/>
  <text x="6.4402008" y="16.977077" text-anchor="middle" font-family="Verdana" font-size="7.5px" fill="#000000" id="text98"/>
  <circle cx="21.75" cy="5.5" r="5" stroke="none" stroke-width="1" fill="#f0f0f0" id="circle100"/>
  <circle cx="21.75" cy="5.5" r="5" stroke="#595959" stroke-width="1" fill="none" id="circle102"/>
  <text x="21.75" y="8.5" text-anchor="middle" font-family="Verdana" font-size="7.5px" fill="#000000" id="text104"/>
  <circle cx="37.059799" cy="13.977077" r="5" stroke="none" stroke-width="1" fill="#f0f0f0" id="circle106"/>
  <circle cx="37.059799" cy="13.977077" r="5" stroke="#595959" stroke-width="1" fill="none" id="circle108"/>
  <text x="37.059799" y="16.977077" text-anchor="middle" font-family="Verdana" font-size="7.5px" fill="#000000" id="text110"/>
  <circle cx="38" cy="31.451824" r="5" stroke="none" stroke-width="1" fill="#f0f0f0" id="circle112"/>
  <circle cx="38" cy="31.451824" r="5" stroke="#595959" stroke-width="1" fill="none" id="circle114"/>
  <text x="38" y="34.451824" text-anchor="middle" font-family="Verdana" font-size="7.5px" fill="#000000" id="text116"/>
  <circle cx="38" cy="51.451824" r="5" stroke="none" stroke-width="1" fill="#f0f0f0" id="circle118"/>
  <circle cx="38" cy="51.451824" r="5" stroke="#595959" stroke-width="1" fill="none" id="circle120"/>
  <text x="38" y="54.451824" text-anchor="middle" font-family="Verdana" font-size="7.5px" fill="#000000" id="text122"/>
  <circle cx="38" cy="71.451828" r="5" stroke="none" stroke-width="1" fill="#f0f0f0" id="circle124"/>
  <circle cx="38" cy="71.451828" r="5" stroke="#595959" stroke-width="1" fill="none" id="circle126"/>
  <text x="38" y="74.451828" text-anchor="middle" font-family="Verdana" font-size="7.5px" fill="#000000" id="text128"/>
  <circle cx="38" cy="91.451828" r="5" stroke="none" stroke-width="1" fill="#f0f0f0" id="circle130"/>
  <circle cx="38" cy="91.451828" r="5" stroke="#595959" stroke-width="1" fill="none" id="circle132"/>
  <text x="38" y="94.451828" text-anchor="middle" font-family="Verdana" font-size="7.5px" fill="#000000" id="text134"/>
  <circle cx="55.5" cy="91.451828" r="5" stroke="none" stroke-width="1" fill="#f0f0f0" id="circle136"/>
  <circle cx="55.5" cy="91.451828" r="5" stroke="#595959" stroke-width="1" fill="none" id="circle138"/>
  <text x="55.5" y="94.451828" text-anchor="middle" font-family="Verdana" font-size="7.5px" fill="#000000" id="text140"/>
  <circle cx="73" cy="91.451828" r="5" stroke="none" stroke-width="1" fill="#f0f0f0" id="circle142"/>
  <circle cx="73" cy="91.451828" r="5" stroke="#595959" stroke-width="1" fill="none" id="circle144"/>
  <text x="73" y="94.451828" text-anchor="middle" font-family="Verdana" font-size="7.5px" fill="#000000" id="text146"/>
  <circle cx="73" cy="71.451828" r="5" stroke="none" stroke-width="1" fill="#f0f0f0" id="circle148"/>
  <circle cx="73" cy="71.451828" r="5" stroke="#595959" stroke-width="1" fill="none" id="circle150"/>
  <text x="73" y="74.451828" text-anchor="middle" font-family="Verdana" font-size="7.5px" fill="#000000" id="text152"/>
  <circle cx="73" cy="51.451824" r="5" stroke="none" stroke-width="1" fill="#f0f0f0" id="circle154"/>
  <circle cx="73" cy="51.451824" r="5" stroke="#595959" stroke-width="1" fill="none" id="circle156"/>
  <text x="73" y="54.451824" text-anchor="middle" font-family="Verdana" font-size="7.5px" fill="#000000" id="text158"/>
  <circle cx="73.940201" cy="33.977077" r="5" stroke="none" stroke-width="1" fill="#f0f0f0" id="circle160"/>
  <circle cx="73.940201" cy="33.977077" r="5" stroke="#595959" stroke-width="1" fill="none" id="circle162"/>
  <text x="73.940201" y="36.977077" text-anchor="middle" font-family="Verdana" font-size="7.5px" fill="#000000" id="text164"/>
  <circle cx="89.25" cy="25.5" r="5" stroke="none" stroke-width="1" fill="#f0f0f0" id="circle166"/>
  <circle cx="89.25" cy="25.5" r="5" stroke="#595959" stroke-width="1" fill="none" id="circle168"/>
  <text x="89.25" y="28.5" text-anchor="middle" font-family="Verdana" font-size="7.5px" fill="#000000" id="text170"/>
  <circle cx="104.5598" cy="33.977077" r="5" stroke="none" stroke-width="1" fill="#f0f0f0" id="circle172"/>
  <circle cx="104.5598" cy="33.977077" r="5" stroke="#595959" stroke-width="1" fill="none" id="circle174"/>
  <text x="104.5598" y="36.977077" text-anchor="middle" font-family="Verdana" font-size="7.5px" fill="#000000" id="text176"/>
  <circle cx="105.5" cy="51.451824" r="5" stroke="none" stroke-width="1" fill="#f0f0f0" id="circle178"/>
  <circle cx="105.5" cy="51.451824" r="5" stroke="#595959" stroke-width="1" fill="none" id="circle180"/>
  <text x="105.5" y="54.451824" text-anchor="middle" font-family="Verdana" font-size="7.5px" fill="#000000" id="text182"/>
  <circle cx="105.5" cy="71.451828" r="5" stroke="none" stroke-width="1" fill="#f0f0f0" id="circle184"/>
  <circle cx="105.5" cy="71.451828" r="5" stroke="#595959" stroke-width="1" fill="none" id="circle186"/>
  <text x="105.5" y="74.451828" text-anchor="middle" font-family="Verdana" font-size="7.5px" fill="#000000" id="text188"/>
  <circle cx="105.5" cy="91.451828" r="5" stroke="none" stroke-width="1" fill="#f0f0f0" id="circle190"/>
  <circle cx="105.5" cy="91.451828" r="5" stroke="#595959" stroke-width="1" fill="none" id="circle192"/>
  <text x="105.5" y="94.451828" text-anchor="middle" font-family="Verdana" font-size="7.5px" fill="#000000" id="text194"/>
  <line x1="5.5" y1="98.951828" x2="5.5" y2="103.95183" stroke="#3f3f3f" stroke-width="1" id="line196"/>
  <text x="5.5" y="114.45183" text-anchor="middle" font-family="Verdana" font-size="7.5px" fill="#3f3f3f" id="text198">1</text>
  <line x1="45.5" y1="71.451828" x2="50.5" y2="71.451828" stroke="#3f3f3f" stroke-width="1" id="line200"/>
  <text x="58" y="74.451828" text-anchor="middle" font-family="Verdana" font-size="7.5px" fill="#3f3f3f" id="text202">10</text>
  <line x1="113" y1="71.451828" x2="118" y2="71.451828" stroke="#3f3f3f" stroke-width="1" id="line204"/>
  <text x="125.5" y="74.451828" text-anchor="middle" font-family="Verdana" font-size="7.5px" fill="#3f3f3f" id="text206">20</text>
  <line x1="105.5" y1="98.951828" x2="105.5" y2="103.95183" stroke="#3f3f3f" stroke-width="1" id="line208"/>
  <text x="105.5" y="114.45183" text-anchor="middle" font-family="Verdana" font-size="7.5px" fill="#3f3f3f" id="text210">21</text>
</svg>