<svg xmlns:inkscape="http://www.inkscape.org/namespaces/inkscape" xmlns:sodipodi="http://sodipodi.sourceforge.net/DTD/sodipodi-0.dtd" xmlns="http://www.w3.org/2000/svg" xmlns:svg="http://www.w3.org/2000/svg" width="253.5" height="94.565353" version="1.1" id="svg196" sodipodi:docname="tmpszjzbd3i.svg">
  <defs id="defs200"/>
  <sodipodi:namedview id="namedview198" pagecolor="#ffffff" bordercolor="#666666" borderopacity="1.0" inkscape:showpageshadow="2" inkscape:pageopacity="0.0" inkscape:pagecheckerboard="0" inkscape:deskcolor="#d1d1d1"/>
  <line x1="10.5" y1="71.451828" x2="18" y2="71.451828" stroke="#595959" stroke-width="1" id="line2"/>
  <line x1="28" y1="71.451828" x2="35.5" y2="71.451828" stroke="#595959" stroke-width="1" id="line4"/>
  <line x1="45.5" y1="71.451828" x2="53" y2="71.451828" stroke="#595959" stroke-width="1" id="line6"/>
  <line x1="63" y1="71.451828" x2="70.5" y2="71.451828" stroke="#595959" stroke-width="1" id="line8"/>
  <line x1="80.5" y1="71.451828" x2="88" y2="71.451828" stroke="#595959" stroke-width="1" id="line10"/>
  <line x1="98" y1="71.451828" x2="105.5" y2="71.451828" stroke="#595959" stroke-width="1" id="line12"/>
  <line x1="110.5" y1="66.451828" x2="110.5" y2="56.451824" stroke="#595959" stroke-width="1" id="line14"/>
  <line x1="110.5" y1="46.451824" x2="110.5" y2="36.451824" stroke="#595959" stroke-width="1" id="line16"/>
  <line x1="110.76863" y1="26.459047" x2="111.17157" y2="18.969856" stroke="#595959" stroke-width="1" id="line18"/>
  <line x1="115.81442" y1="11.555059" x2="122.37578" y2="7.922019" stroke="#595959" stroke-width="1" id="line20"/>
  <line x1="131.12422" y1="7.922019" x2="137.68558" y2="11.555059" stroke="#595959" stroke-width="1" id="line22"/>
  <line x1="142.32843" y1="18.969856" x2="142.73137" y2="26.459047" stroke="#595959" stroke-width="1" id="line24"/>
  <line x1="143" y1="36.451824" x2="143" y2="46.451824" stroke="#595959" stroke-width="1" id="line26"/>
  <line x1="143" y1="56.451824" x2="143" y2="66.451828" stroke="#595959" stroke-width="1" id="line28"/>
  <line x1="148" y1="71.451828" x2="155.5" y2="71.451828" stroke="#595959" stroke-width="1" id="line30"/>
  <line x1="165.5" y1="71.451828" x2="173" y2="71.451828" stroke="#595959" stroke-width="1" id="line32"/>
  <line x1="183" y1="71.451828" x2="190.5" y2="71.451828" stroke="#595959" stroke-width="1" id="line34"/>
  <line x1="200.5" y1="71.451828" x2="208" y2="71.451828" stroke="#595959" stroke-width="1" id="line36"/>
  <line x1="218" y1="71.451828" x2="225.5" y2="71.451828" stroke="#595959" stroke-width="1" id="line38"/>
  <line x1="235.5" y1="71.451828" x2="243" y2="71.451828" stroke="#595959" stroke-width="1" id="line40"/>
  <line x1="115.5" y1="71.451828" x2="138" y2="71.451828" stroke="#0000ff" stroke-width="1" id="line42"/>
  <circle cx="126.75" cy="71.451828" r="2.75" stroke="none" stroke-width="1" fill="#0000ff" id="circle44"/>
  <line x1="115.5" y1="51.451824" x2="138" y2="51.451824" stroke="#0000ff" stroke-width="1" id="line46"/>
  <circle cx="126.75" cy="51.451824" r="2.75" stroke="none" stroke-width="1" fill="#0000ff" id="circle48"/>
  <line x1="115.5" y1="31.451824" x2="138" y2="31.451824" stroke="#0000ff" stroke-width="1" id="line50"/>
  <circle cx="126.75" cy="31.451824" r="2.75" stroke="none" stroke-width="1" fill="#0000ff" id="circle52"/>
  <circle cx="5.5" cy="71.451828" r="5" stroke="none" stroke-width="1" fill="#f0f0f0" id="circle54"/>
  <circle cx="5.5" cy="71.451828" r="5" stroke="#595959" stroke-width="1" fill="none" id="circle56"/>
  <text x="5.5" y="74.451828" text-anchor="middle" font-family="Verdana" font-size="7.5px" fill="#000000" id="text58"/>
  <circle cx="23" cy="71.451828" r="5" stroke="none" stroke-width="1" fill="#f0f0f0" id="circle60"/>
  <circle cx="23" cy="71.451828" r="5" stroke="#595959" stroke-width="1" fill="none" id="circle62"/>
  <text x="23" y="74.451828" text-anchor="middle" font-family="Verdana" font-size="7.5px" fill="#000000" id="text64"/>
  <circle cx="40.5" cy="71.451828" r="5" stroke="none" stroke-width="1" fill="#f0f0f0" id="circle66"/>
  <circle cx="40.5" cy="71.451828" r="5" stroke="#595959" stroke-width="1" fill="none" id="circle68"/>
  <text x="40.5" y="74.451828" text-anchor="middle" font-family="Verdana" font-size="7.5px" fill="#000000" id="text70"/>
  <circle cx="58" cy="71.451828" r="5" stroke="none" stroke-width="1" fill="#f0f0f0" id="circle72"/>
  <circle cx="58" cy="71.451828" r="5" stroke="#595959" stroke-width="1" fill="none" id="circle74"/>
  <text x="58" y="74.451828" text-anchor="middle" font-family="Verdana" font-size="7.5px" fill="#000000" id="text76"/>
  <circle cx="75.5" cy="71.451828" r="5" stroke="none" stroke-width="1" fill="#f0f0f0" id="circle78"/>
  <circle cx="75.5" cy="71.451828" r="5" stroke="#595959" stroke-width="1" fill="none" id="circle80"/>
  <text x="75.5" y="74.451828" text-anchor="middle" font-family="Verdana" font-size="7.5px" fill="#000000" id="text82"/>
  <circle cx="93" cy="71.451828" r="5" stroke="none" stroke-width="1" fill="#f0f0f0" id="circle84"/>
  <circle cx="93" cy="71.451828" r="5" stroke="#595959" stroke-width="1" fill="none" id="circle86"/>
  <text x="93" y="74.451828" text-anchor="middle" font-family="Verdana" font-size="7.5px" fill="#000000" id="text88"/>
  <circle cx="110.5" cy="71.451828" r="5" stroke="none" stroke-width="1" fill="#f0f0f0" id="circle90"/>
  <circle cx="110.5" cy="71.451828" r="5" stroke="#595959" stroke-width="1" fill="none" id="circle92"/>
  <text x="110.5" y="74.451828" text-anchor="middle" font-family="Verdana" font-size="7.5px" fill="#000000" id="text94"/>
  <circle cx="110.5" cy="51.451824" r="5" stroke="none" stroke-width="1" fill="#f0f0f0" id="circle96"/>
  <circle cx="110.5" cy="51.451824" r="5" stroke="#595959" stroke-width="1" fill="none" id="circle98"/>
  <text x="110.5" y="54.451824" text-anchor="middle" font-family="Verdana" font-size="7.5px" fill="#000000" id="text100"/>
  <circle cx="110.5" cy="31.451824" r="5" stroke="none" stroke-width="1" fill="#f0f0f0" id="circle102"/>
  <circle cx="110.5" cy="31.451824" r="5" stroke="#595959" stroke-width="1" fill="none" id="circle104"/>
  <text x="110.5" y="34.451824" text-anchor="middle" font-family="Verdana" font-size="7.5px" fill="#000000" id="text106"/>
  <circle cx="111.4402" cy="13.977077" r="5" stroke="none" stroke-width="1" fill="#f0f0f0" id="circle108"/>
  <circle cx="111.4402" cy="13.977077" r="5" stroke="#595959" stroke-width="1" fill="none" id="circle110"/>
  <text x="111.4402" y="16.977077" text-anchor="middle" font-family="Verdana" font-size="7.5px" fill="#000000" id="text112"/>
  <circle cx="126.75" cy="5.5" r="5" stroke="none" stroke-width="1" fill="#f0f0f0" id="circle114"/>
  <circle cx="126.75" cy="5.5" r="5" stroke="#595959" stroke-width="1" fill="none" id="circle116"/>
  <text x="126.75" y="8.5" text-anchor="middle" font-family="Verdana" font-size="7.5px" fill="#000000" id="text118"/>
  <circle cx="142.0598" cy="13.977077" r="5" stroke="none" stroke-width="1" fill="#f0f0f0" id="circle120"/>
  <circle cx="142.0598" cy="13.977077" r="5" stroke="#595959" stroke-width="1" fill="none" id="circle122"/>
  <text x="142.0598" y="16.977077" text-anchor="middle" font-family="Verdana" font-size="7.5px" fill="#000000" id="text124"/>
  <circle cx="143" cy="31.451824" r="5" stroke="none" stroke-width="1" fill="#f0f0f0" id="circle126"/>
  <circle cx="143" cy="31.451824" r="5" stroke="#595959" stroke-width="1" fill="none" id="circle128"/>
  <text x="143" y="34.451824" text-anchor="middle" font-family="Verdana" font-size="7.5px" fill="#000000" id="text130"/>
  <circle cx="143" cy="51.451824" r="5" stroke="none" stroke-width="1" fill="#f0f0f0" id="circle132"/>
  <circle cx="143" cy="51.451824" r="5" stroke="#595959" stroke-width="1" fill="none" id="circle134"/>
  <text x="143" y="54.451824" text-anchor="middle" font-family="Verdana" font-size="7.5px" fill="#000000" id="text136"/>
  <circle cx="143" cy="71.451828" r="5" stroke="none" stroke-width="1" fill="#f0f0f0" id="circle138"/>
  <circle cx="143" cy="71.451828" r="5" stroke="#595959" stroke-width="1" fill="none" id="circle140"/>
  <text x="143" y="74.451828" text-anchor="middle" font-family="Verdana" font-size="7.5px" fill="#000000" id="text142"/>
  <circle cx="160.5" cy="71.451828" r="5" stroke="none" stroke-width="1" fill="#f0f0f0" id="circle144"/>
  <circle cx="160.5" cy="71.451828" r="5" stroke="#595959" stroke-width="1" fill="none" id="circle146"/>
  <text x="160.5" y="74.451828" text-anchor="middle" font-family="Verdana" font-size="7.5px" fill="#000000" id="text148"/>
  <circle cx="178" cy="71.451828" r="5" stroke="none" stroke-width="1" fill="#f0f0f0" id="circle150"/>
  <circle cx="178" cy="71.451828" r="5" stroke="#595959" stroke-width="1" fill="none" id="circle152"/>
  <text x="178" y="74.451828" text-anchor="middle" font-family="Verdana" font-size="7.5px" fill="#000000" id="text154"/>
  <circle cx="195.5" cy="71.451828" r="5" stroke="none" stroke-width="1" fill="#f0f0f0" id="circle156"/>
  <circle cx="195.5" cy="71.451828" r="5" stroke="#595959" stroke-width="1" fill="none" id="circle158"/>
  <text x="195.5" y="74.451828" text-anchor="middle" font-family="Verdana" font-size="7.5px" fill="#000000" id="text160"/>
  <circle cx="213" cy="71.451828" r="5" stroke="none" stroke-width="1" fill="#f0f0f0" id="circle162"/>
  <circle cx="213" cy="71.451828" r="5" stroke="#595959" stroke-width="1" fill="none" id="circle164"/>
  <text x="213" y="74.451828" text-anchor="middle" font-family="Verdana" font-size="7.5px" fill="#000000" id="text166"/>
  <circle cx="230.5" cy="71.451828" r="5" stroke="none" stroke-width="1" fill="#f0f0f0" id="circle168"/>
  <circle cx="230.5" cy="71.451828" r="5" stroke="#595959" stroke-width="1" fill="none" id="circle170"/>
  <text x="230.5" y="74.451828" text-anchor="middle" font-family="Verdana" font-size="7.5px" fill="#000000" id="text172"/>
  <circle cx="248" cy="71.451828" r="5" stroke="none" stroke-width="1" fill="#f0f0f0" id="circle174"/>
  <circle cx="248" cy="71.451828" r="5" stroke="#595959" stroke-width="1" fill="none" id="circle176"/>
  <text x="248" y="74.451828" text-anchor="middle" font-family="Verdana" font-size="7.5px" fill="#000000" id="text178"/>
  <line x1="5.5" y1="78.951828" x2="5.5" y2="83.951828" stroke="#3f3f3f" stroke-width="1" id="line180"/>
  <text x="5.5" y="94.451828" text-anchor="middle" font-family="Verdana" font-size="7.5px" fill="#3f3f3f" id="text182">1</text>
  <line x1="105.08353" y1="9.9967842" x2="100.84575" y2="7.343255" stroke="#3f3f3f" stroke-width="1" id="line184"/>
  <text x="94.489082" y="6.3629608" text-anchor="middle" font-family="Verdana" font-size="7.5px" fill="#3f3f3f" id="text186">10</text>
  <line x1="230.5" y1="78.951828" x2="230.5" y2="83.951828" stroke="#3f3f3f" stroke-width="1" id="line188"/>
  <text x="230.5" y="94.451828" text-anchor="middle" font-family="Verdana" font-size="7.5px" fill="#3f3f3f" id="text190">20</text>
  <line x1="248" y1="78.951828" x2="248" y2="83.951828" stroke="#3f3f3f" stroke-width="1" id="line192"/>
  <text x="248" y="94.451828" text-anchor="middle" font-family="Verdana" font-size="7.5px" fill="#3f3f3f" id="text194">21</text>
</svg>