<?xml version="1.0" encoding="UTF-8" standalone="no"?>
<!DOCTYPE svg PUBLIC "-//W3C//DTD SVG 1.1//EN"
 "http://www.w3.org/Graphics/SVG/1.1/DTD/svg11.dtd">
<!-- Generated by graphviz version 2.50.0 (0)
 -->
<!-- Title: coloring Pages: 1 -->
<svg width="249pt" height="219pt"
 viewBox="0.00 0.00 249.00 219.00" xmlns="http://www.w3.org/2000/svg" xmlns:xlink="http://www.w3.org/1999/xlink">
<g id="graph0" class="graph" transform="scale(1 1) rotate(0) translate(4 215)">
<title>coloring</title>
<polygon fill="white" stroke="transparent" points="-4,4 -4,-215 245,-215 245,4 -4,4"/>
<!-- 1 -->
<g id="node1" class="node">
<title>1</title>
<ellipse fill="yellow" stroke="yellow" cx="29.35" cy="-192.94" rx="27" ry="18"/>
<text text-anchor="middle" x="29.35" y="-189.24" font-family="Times,serif" font-size="14.00">1</text>
</g>
<!-- 5 -->
<g id="node5" class="node">
<title>5</title>
<ellipse fill="orange" stroke="orange" cx="100.04" cy="-130.82" rx="27" ry="18"/>
<text text-anchor="middle" x="100.04" y="-127.12" font-family="Times,serif" font-size="14.00">5</text>
</g>
<!-- 1&#45;&#45;5 -->
<g id="edge1" class="edge">
<title>1&#45;&#45;5</title>
<path fill="none" stroke="black" d="M45.75,-178.53C57.01,-168.64 71.9,-155.55 83.25,-145.58"/>
</g>
<!-- 2 -->
<g id="node2" class="node">
<title>2</title>
<ellipse fill="cyan" stroke="cyan" cx="198.95" cy="-123.83" rx="27" ry="18"/>
<text text-anchor="middle" x="198.95" y="-120.13" font-family="Times,serif" font-size="14.00">2</text>
</g>
<!-- 3 -->
<g id="node3" class="node">
<title>3</title>
<ellipse fill="orange" stroke="orange" cx="178.55" cy="-18.03" rx="27" ry="18"/>
<text text-anchor="middle" x="178.55" y="-14.33" font-family="Times,serif" font-size="14.00">3</text>
</g>
<!-- 2&#45;&#45;3 -->
<g id="edge2" class="edge">
<title>2&#45;&#45;3</title>
<path fill="none" stroke="black" d="M195.49,-105.88C191.74,-86.43 185.78,-55.55 182.03,-36.06"/>
</g>
<!-- 2&#45;&#45;5 -->
<g id="edge3" class="edge">
<title>2&#45;&#45;5</title>
<path fill="none" stroke="black" d="M171.92,-125.74C157.97,-126.73 140.99,-127.93 127.04,-128.91"/>
</g>
<!-- 7 -->
<g id="node7" class="node">
<title>7</title>
<ellipse fill="yellow" stroke="yellow" cx="110.08" cy="-179.99" rx="27" ry="18"/>
<text text-anchor="middle" x="110.08" y="-176.29" font-family="Times,serif" font-size="14.00">7</text>
</g>
<!-- 2&#45;&#45;7 -->
<g id="edge4" class="edge">
<title>2&#45;&#45;7</title>
<path fill="none" stroke="black" d="M179.23,-136.3C164.5,-145.6 144.46,-158.27 129.74,-167.56"/>
</g>
<!-- 6 -->
<g id="node6" class="node">
<title>6</title>
<ellipse fill="yellow" stroke="yellow" cx="76.15" cy="-29.03" rx="27" ry="18"/>
<text text-anchor="middle" x="76.15" y="-25.33" font-family="Times,serif" font-size="14.00">6</text>
</g>
<!-- 3&#45;&#45;6 -->
<g id="edge5" class="edge">
<title>3&#45;&#45;6</title>
<path fill="none" stroke="black" d="M151.64,-20.92C136.59,-22.54 117.89,-24.55 102.87,-26.16"/>
</g>
<!-- 4 -->
<g id="node4" class="node">
<title>4</title>
<ellipse fill="orange" stroke="orange" cx="214.24" cy="-187.64" rx="27" ry="18"/>
<text text-anchor="middle" x="214.24" y="-183.94" font-family="Times,serif" font-size="14.00">4</text>
</g>
<!-- 5&#45;&#45;6 -->
<g id="edge6" class="edge">
<title>5&#45;&#45;6</title>
<path fill="none" stroke="black" d="M95.77,-112.63C91.42,-94.1 84.72,-65.54 80.38,-47.07"/>
</g>
<!-- 5&#45;&#45;7 -->
<g id="edge7" class="edge">
<title>5&#45;&#45;7</title>
<path fill="none" stroke="black" d="M103.72,-148.85C104.59,-153.13 105.52,-157.69 106.4,-161.97"/>
</g>
<!-- 8 -->
<g id="node8" class="node">
<title>8</title>
<ellipse fill="cyan" stroke="cyan" cx="27.1" cy="-104.1" rx="27" ry="18"/>
<text text-anchor="middle" x="27.1" y="-100.4" font-family="Times,serif" font-size="14.00">8</text>
</g>
<!-- 5&#45;&#45;8 -->
<g id="edge8" class="edge">
<title>5&#45;&#45;8</title>
<path fill="none" stroke="black" d="M76.16,-122.07C68.02,-119.09 58.92,-115.75 50.79,-112.78"/>
</g>
<!-- 9 -->
<g id="node9" class="node">
<title>9</title>
<ellipse fill="red" stroke="red" cx="144.13" cy="-69.37" rx="27" ry="18"/>
<text text-anchor="middle" x="144.13" y="-65.67" font-family="Times,serif" font-size="14.00">9</text>
</g>
<!-- 5&#45;&#45;9 -->
<g id="edge9" class="edge">
<title>5&#45;&#45;9</title>
<path fill="none" stroke="black" d="M111.86,-114.35C118.18,-105.54 125.95,-94.71 132.28,-85.88"/>
</g>
<!-- 6&#45;&#45;8 -->
<g id="edge10" class="edge">
<title>6&#45;&#45;8</title>
<path fill="none" stroke="black" d="M65.26,-45.69C57.14,-58.13 46.08,-75.06 37.96,-87.48"/>
</g>
<!-- 6&#45;&#45;9 -->
<g id="edge11" class="edge">
<title>6&#45;&#45;9</title>
<path fill="none" stroke="black" d="M96.54,-41.14C105.15,-46.24 115.14,-52.17 123.74,-57.28"/>
</g>
<!-- 7&#45;&#45;8 -->
<g id="edge12" class="edge">
<title>7&#45;&#45;8</title>
<path fill="none" stroke="black" d="M94.08,-165.36C79.39,-151.92 57.73,-132.11 43.05,-118.68"/>
</g>
</g>
</svg>
