<?xml version="1.0" encoding="UTF-8" standalone="no"?>
<!DOCTYPE svg PUBLIC "-//W3C//DTD SVG 1.1//EN"
 "http://www.w3.org/Graphics/SVG/1.1/DTD/svg11.dtd">
<!-- Generated by graphviz version 2.50.0 (0)
 -->
<!-- Pages: 1 -->
<svg width="350pt" height="297pt"
 viewBox="0.00 0.00 350.00 297.00" xmlns="http://www.w3.org/2000/svg" xmlns:xlink="http://www.w3.org/1999/xlink">
<g id="graph0" class="graph" transform="scale(1 1) rotate(0) translate(4 293)">
<polygon fill="white" stroke="transparent" points="-4,4 -4,-293 346,-293 346,4 -4,4"/>
<!-- 0 -->
<g id="node1" class="node">
<title>0</title>
<path fill="none" stroke="#4d4d4d" stroke-width="3" d="M188.33,-289C188.33,-289 153.67,-289 153.67,-289 148.83,-289 144,-284.17 144,-279.33 144,-279.33 144,-269.67 144,-269.67 144,-264.83 148.83,-260 153.67,-260 153.67,-260 188.33,-260 188.33,-260 193.17,-260 198,-264.83 198,-269.67 198,-269.67 198,-279.33 198,-279.33 198,-284.17 193.17,-289 188.33,-289"/>
</g>
<!-- 1 -->
<g id="node2" class="node">
<title>1</title>
<path fill="none" stroke="#4d4d4d" stroke-width="3" d="M152.33,-224C152.33,-224 117.67,-224 117.67,-224 112.83,-224 108,-219.17 108,-214.33 108,-214.33 108,-204.67 108,-204.67 108,-199.83 112.83,-195 117.67,-195 117.67,-195 152.33,-195 152.33,-195 157.17,-195 162,-199.83 162,-204.67 162,-204.67 162,-214.33 162,-214.33 162,-219.17 157.17,-224 152.33,-224"/>
</g>
<!-- 0&#45;&gt;1 -->
<g id="edge1" class="edge">
<title>0&#45;&gt;1</title>
<path fill="none" stroke="#4d4d4d" stroke-width="1.5" d="M163.19,-259.83C158.42,-251.49 152.24,-240.67 146.88,-231.28"/>
<polygon fill="#4d4d4d" stroke="#4d4d4d" stroke-width="1.5" points="149.2,-229.7 142.8,-224.14 144.33,-232.48 149.2,-229.7"/>
</g>
<!-- 2 -->
<g id="node3" class="node">
<title>2</title>
<path fill="none" stroke="#4d4d4d" stroke-width="3" d="M224.33,-224C224.33,-224 189.67,-224 189.67,-224 184.83,-224 180,-219.17 180,-214.33 180,-214.33 180,-204.67 180,-204.67 180,-199.83 184.83,-195 189.67,-195 189.67,-195 224.33,-195 224.33,-195 229.17,-195 234,-199.83 234,-204.67 234,-204.67 234,-214.33 234,-214.33 234,-219.17 229.17,-224 224.33,-224"/>
</g>
<!-- 0&#45;&gt;2 -->
<g id="edge2" class="edge">
<title>0&#45;&gt;2</title>
<path fill="none" stroke="#4d4d4d" stroke-width="1.5" d="M178.81,-259.83C183.58,-251.49 189.76,-240.67 195.12,-231.28"/>
<polygon fill="#4d4d4d" stroke="#4d4d4d" stroke-width="1.5" points="197.67,-232.48 199.2,-224.14 192.8,-229.7 197.67,-232.48"/>
</g>
<!-- 3 -->
<g id="node4" class="node">
<title>3</title>
<path fill="none" stroke="#4d4d4d" stroke-width="3" d="M116.33,-159C116.33,-159 81.67,-159 81.67,-159 76.83,-159 72,-154.17 72,-149.33 72,-149.33 72,-139.67 72,-139.67 72,-134.83 76.83,-130 81.67,-130 81.67,-130 116.33,-130 116.33,-130 121.17,-130 126,-134.83 126,-139.67 126,-139.67 126,-149.33 126,-149.33 126,-154.17 121.17,-159 116.33,-159"/>
</g>
<!-- 1&#45;&gt;3 -->
<g id="edge3" class="edge">
<title>1&#45;&gt;3</title>
<path fill="none" stroke="#4d4d4d" stroke-width="1.5" d="M127.19,-194.83C122.42,-186.49 116.24,-175.67 110.88,-166.28"/>
<polygon fill="#4d4d4d" stroke="#4d4d4d" stroke-width="1.5" points="113.2,-164.7 106.8,-159.14 108.33,-167.48 113.2,-164.7"/>
</g>
<!-- 4 -->
<g id="node5" class="node">
<title>4</title>
<path fill="none" stroke="red" stroke-width="3" d="M188.33,-159C188.33,-159 153.67,-159 153.67,-159 148.83,-159 144,-154.17 144,-149.33 144,-149.33 144,-139.67 144,-139.67 144,-134.83 148.83,-130 153.67,-130 153.67,-130 188.33,-130 188.33,-130 193.17,-130 198,-134.83 198,-139.67 198,-139.67 198,-149.33 198,-149.33 198,-154.17 193.17,-159 188.33,-159"/>
</g>
<!-- 1&#45;&gt;4 -->
<g id="edge4" class="edge">
<title>1&#45;&gt;4</title>
<path fill="none" stroke="#4d4d4d" stroke-width="1.5" d="M142.81,-194.83C147.58,-186.49 153.76,-175.67 159.12,-166.28"/>
<polygon fill="#4d4d4d" stroke="#4d4d4d" stroke-width="1.5" points="161.67,-167.48 163.2,-159.14 156.8,-164.7 161.67,-167.48"/>
</g>
<!-- 2&#45;&gt;4 -->
<g id="edge5" class="edge">
<title>2&#45;&gt;4</title>
<path fill="none" stroke="#4d4d4d" stroke-width="1.5" d="M199.19,-194.83C194.42,-186.49 188.24,-175.67 182.88,-166.28"/>
<polygon fill="#4d4d4d" stroke="#4d4d4d" stroke-width="1.5" points="185.2,-164.7 178.8,-159.14 180.33,-167.48 185.2,-164.7"/>
</g>
<!-- 5 -->
<g id="node6" class="node">
<title>5</title>
<path fill="none" stroke="#4d4d4d" stroke-width="3" d="M260.33,-159C260.33,-159 225.67,-159 225.67,-159 220.83,-159 216,-154.17 216,-149.33 216,-149.33 216,-139.67 216,-139.67 216,-134.83 220.83,-130 225.67,-130 225.67,-130 260.33,-130 260.33,-130 265.17,-130 270,-134.83 270,-139.67 270,-139.67 270,-149.33 270,-149.33 270,-154.17 265.17,-159 260.33,-159"/>
</g>
<!-- 2&#45;&gt;5 -->
<g id="edge6" class="edge">
<title>2&#45;&gt;5</title>
<path fill="none" stroke="#4d4d4d" stroke-width="1.5" d="M214.81,-194.83C219.58,-186.49 225.76,-175.67 231.12,-166.28"/>
<polygon fill="#4d4d4d" stroke="#4d4d4d" stroke-width="1.5" points="233.67,-167.48 235.2,-159.14 228.8,-164.7 233.67,-167.48"/>
</g>
<!-- 7 -->
<g id="node8" class="node">
<title>7</title>
<path fill="none" stroke="blue" stroke-width="3" d="M44.33,-94C44.33,-94 9.67,-94 9.67,-94 4.83,-94 0,-89.17 0,-84.33 0,-84.33 0,-74.67 0,-74.67 0,-69.83 4.83,-65 9.67,-65 9.67,-65 44.33,-65 44.33,-65 49.17,-65 54,-69.83 54,-74.67 54,-74.67 54,-84.33 54,-84.33 54,-89.17 49.17,-94 44.33,-94"/>
<text text-anchor="middle" x="27" y="-73.9" font-family="Helvetica,sans-Serif" font-size="22.00">A</text>
</g>
<!-- 3&#45;&gt;7 -->
<g id="edge8" class="edge">
<title>3&#45;&gt;7</title>
<path fill="none" stroke="#4d4d4d" stroke-width="1.5" d="M83.38,-129.83C73.28,-121 60,-109.37 48.86,-99.63"/>
<polygon fill="#4d4d4d" stroke="#4d4d4d" stroke-width="1.5" points="50.46,-97.3 42.59,-94.14 46.77,-101.52 50.46,-97.3"/>
</g>
<!-- 8 -->
<g id="node9" class="node">
<title>8</title>
<path fill="none" stroke="blue" stroke-width="3" d="M116.33,-94C116.33,-94 81.67,-94 81.67,-94 76.83,-94 72,-89.17 72,-84.33 72,-84.33 72,-74.67 72,-74.67 72,-69.83 76.83,-65 81.67,-65 81.67,-65 116.33,-65 116.33,-65 121.17,-65 126,-69.83 126,-74.67 126,-74.67 126,-84.33 126,-84.33 126,-89.17 121.17,-94 116.33,-94"/>
<text text-anchor="middle" x="99" y="-73.9" font-family="Helvetica,sans-Serif" font-size="22.00">T</text>
</g>
<!-- 3&#45;&gt;8 -->
<g id="edge9" class="edge">
<title>3&#45;&gt;8</title>
<path fill="none" stroke="#4d4d4d" stroke-width="1.5" d="M99,-129.83C99,-121.82 99,-111.52 99,-102.41"/>
<polygon fill="#4d4d4d" stroke="#4d4d4d" stroke-width="1.5" points="101.8,-102.14 99,-94.14 96.2,-102.14 101.8,-102.14"/>
</g>
<!-- 6 -->
<g id="node7" class="node">
<title>6</title>
<path fill="none" stroke="#4d4d4d" stroke-width="3" d="M188.33,-94C188.33,-94 153.67,-94 153.67,-94 148.83,-94 144,-89.17 144,-84.33 144,-84.33 144,-74.67 144,-74.67 144,-69.83 148.83,-65 153.67,-65 153.67,-65 188.33,-65 188.33,-65 193.17,-65 198,-69.83 198,-74.67 198,-74.67 198,-84.33 198,-84.33 198,-89.17 193.17,-94 188.33,-94"/>
</g>
<!-- 4&#45;&gt;6 -->
<g id="edge7" class="edge">
<title>4&#45;&gt;6</title>
<path fill="none" stroke="#4d4d4d" stroke-width="1.5" d="M171,-129.83C171,-121.82 171,-111.52 171,-102.41"/>
<polygon fill="#4d4d4d" stroke="#4d4d4d" stroke-width="1.5" points="173.8,-102.14 171,-94.14 168.2,-102.14 173.8,-102.14"/>
</g>
<!-- 11 -->
<g id="node12" class="node">
<title>11</title>
<path fill="none" stroke="blue" stroke-width="3" d="M260.33,-94C260.33,-94 225.67,-94 225.67,-94 220.83,-94 216,-89.17 216,-84.33 216,-84.33 216,-74.67 216,-74.67 216,-69.83 220.83,-65 225.67,-65 225.67,-65 260.33,-65 260.33,-65 265.17,-65 270,-69.83 270,-74.67 270,-74.67 270,-84.33 270,-84.33 270,-89.17 265.17,-94 260.33,-94"/>
<text text-anchor="middle" x="243" y="-73.9" font-family="Helvetica,sans-Serif" font-size="22.00">G</text>
</g>
<!-- 5&#45;&gt;11 -->
<g id="edge12" class="edge">
<title>5&#45;&gt;11</title>
<path fill="none" stroke="#4d4d4d" stroke-width="1.5" d="M243,-129.83C243,-121.82 243,-111.52 243,-102.41"/>
<polygon fill="#4d4d4d" stroke="#4d4d4d" stroke-width="1.5" points="245.8,-102.14 243,-94.14 240.2,-102.14 245.8,-102.14"/>
</g>
<!-- 12 -->
<g id="node13" class="node">
<title>12</title>
<path fill="none" stroke="blue" stroke-width="3" d="M332.33,-94C332.33,-94 297.67,-94 297.67,-94 292.83,-94 288,-89.17 288,-84.33 288,-84.33 288,-74.67 288,-74.67 288,-69.83 292.83,-65 297.67,-65 297.67,-65 332.33,-65 332.33,-65 337.17,-65 342,-69.83 342,-74.67 342,-74.67 342,-84.33 342,-84.33 342,-89.17 337.17,-94 332.33,-94"/>
<text text-anchor="middle" x="315" y="-73.9" font-family="Helvetica,sans-Serif" font-size="22.00">G</text>
</g>
<!-- 5&#45;&gt;12 -->
<g id="edge13" class="edge">
<title>5&#45;&gt;12</title>
<path fill="none" stroke="#4d4d4d" stroke-width="1.5" d="M258.62,-129.83C268.72,-121 282,-109.37 293.14,-99.63"/>
<polygon fill="#4d4d4d" stroke="#4d4d4d" stroke-width="1.5" points="295.23,-101.52 299.41,-94.14 291.54,-97.3 295.23,-101.52"/>
</g>
<!-- 9 -->
<g id="node10" class="node">
<title>9</title>
<path fill="none" stroke="blue" stroke-width="3" d="M152.33,-29C152.33,-29 117.67,-29 117.67,-29 112.83,-29 108,-24.17 108,-19.33 108,-19.33 108,-9.67 108,-9.67 108,-4.83 112.83,0 117.67,0 117.67,0 152.33,0 152.33,0 157.17,0 162,-4.83 162,-9.67 162,-9.67 162,-19.33 162,-19.33 162,-24.17 157.17,-29 152.33,-29"/>
<text text-anchor="middle" x="135" y="-8.9" font-family="Helvetica,sans-Serif" font-size="22.00">T</text>
</g>
<!-- 6&#45;&gt;9 -->
<g id="edge10" class="edge">
<title>6&#45;&gt;9</title>
<path fill="none" stroke="#4d4d4d" stroke-width="1.5" d="M163.19,-64.83C158.42,-56.49 152.24,-45.67 146.88,-36.28"/>
<polygon fill="#4d4d4d" stroke="#4d4d4d" stroke-width="1.5" points="149.2,-34.7 142.8,-29.14 144.33,-37.48 149.2,-34.7"/>
</g>
<!-- 10 -->
<g id="node11" class="node">
<title>10</title>
<path fill="none" stroke="blue" stroke-width="3" d="M224.33,-29C224.33,-29 189.67,-29 189.67,-29 184.83,-29 180,-24.17 180,-19.33 180,-19.33 180,-9.67 180,-9.67 180,-4.83 184.83,0 189.67,0 189.67,0 224.33,0 224.33,0 229.17,0 234,-4.83 234,-9.67 234,-9.67 234,-19.33 234,-19.33 234,-24.17 229.17,-29 224.33,-29"/>
<text text-anchor="middle" x="207" y="-8.9" font-family="Helvetica,sans-Serif" font-size="22.00">C</text>
</g>
<!-- 6&#45;&gt;10 -->
<g id="edge11" class="edge">
<title>6&#45;&gt;10</title>
<path fill="none" stroke="#4d4d4d" stroke-width="1.5" d="M178.81,-64.83C183.58,-56.49 189.76,-45.67 195.12,-36.28"/>
<polygon fill="#4d4d4d" stroke="#4d4d4d" stroke-width="1.5" points="197.67,-37.48 199.2,-29.14 192.8,-34.7 197.67,-37.48"/>
</g>
</g>
</svg>
