<?xml version="1.0" encoding="UTF-8" standalone="no"?>
<!DOCTYPE svg PUBLIC "-//W3C//DTD SVG 1.1//EN"
 "http://www.w3.org/Graphics/SVG/1.1/DTD/svg11.dtd">
<!-- Generated by graphviz version 2.50.0 (0)
 -->
<!-- Pages: 1 -->
<svg width="352pt" height="297pt"
 viewBox="0.00 0.00 352.00 297.00" xmlns="http://www.w3.org/2000/svg" xmlns:xlink="http://www.w3.org/1999/xlink">
<g id="graph0" class="graph" transform="scale(1 1) rotate(0) translate(4 293)">
<polygon fill="white" stroke="transparent" points="-4,4 -4,-293 348,-293 348,4 -4,4"/>
<!-- 0 -->
<g id="node1" class="node">
<title>0</title>
<path fill="none" stroke="#4d4d4d" stroke-width="3" d="M189.33,-289C189.33,-289 154.67,-289 154.67,-289 149.83,-289 145,-284.17 145,-279.33 145,-279.33 145,-269.67 145,-269.67 145,-264.83 149.83,-260 154.67,-260 154.67,-260 189.33,-260 189.33,-260 194.17,-260 199,-264.83 199,-269.67 199,-269.67 199,-279.33 199,-279.33 199,-284.17 194.17,-289 189.33,-289"/>
<text text-anchor="middle" x="172" y="-268.9" font-family="Helvetica,sans-Serif" font-size="22.00">{C}</text>
</g>
<!-- 1 -->
<g id="node2" class="node">
<title>1</title>
<path fill="none" stroke="#4d4d4d" stroke-width="3" d="M153.33,-224C153.33,-224 118.67,-224 118.67,-224 113.83,-224 109,-219.17 109,-214.33 109,-214.33 109,-204.67 109,-204.67 109,-199.83 113.83,-195 118.67,-195 118.67,-195 153.33,-195 153.33,-195 158.17,-195 163,-199.83 163,-204.67 163,-204.67 163,-214.33 163,-214.33 163,-219.17 158.17,-224 153.33,-224"/>
<text text-anchor="middle" x="136" y="-203.9" font-family="Helvetica,sans-Serif" font-size="22.00">{T}</text>
</g>
<!-- 0&#45;&gt;1 -->
<g id="edge1" class="edge">
<title>0&#45;&gt;1</title>
<path fill="none" stroke="#4d4d4d" stroke-width="1.5" d="M164.19,-259.83C159.42,-251.49 153.24,-240.67 147.88,-231.28"/>
<polygon fill="#4d4d4d" stroke="#4d4d4d" stroke-width="1.5" points="150.2,-229.7 143.8,-224.14 145.33,-232.48 150.2,-229.7"/>
</g>
<!-- 2 -->
<g id="node3" class="node">
<title>2</title>
<path fill="none" stroke="#4d4d4d" stroke-width="3" d="M225.33,-224C225.33,-224 190.67,-224 190.67,-224 185.83,-224 181,-219.17 181,-214.33 181,-214.33 181,-204.67 181,-204.67 181,-199.83 185.83,-195 190.67,-195 190.67,-195 225.33,-195 225.33,-195 230.17,-195 235,-199.83 235,-204.67 235,-204.67 235,-214.33 235,-214.33 235,-219.17 230.17,-224 225.33,-224"/>
<text text-anchor="middle" x="208" y="-203.9" font-family="Helvetica,sans-Serif" font-size="22.00">{C}</text>
</g>
<!-- 0&#45;&gt;2 -->
<g id="edge2" class="edge">
<title>0&#45;&gt;2</title>
<path fill="none" stroke="#4d4d4d" stroke-width="1.5" d="M179.81,-259.83C184.58,-251.49 190.76,-240.67 196.12,-231.28"/>
<polygon fill="#4d4d4d" stroke="#4d4d4d" stroke-width="1.5" points="198.67,-232.48 200.2,-224.14 193.8,-229.7 198.67,-232.48"/>
</g>
<!-- 3 -->
<g id="node4" class="node">
<title>3</title>
<path fill="none" stroke="#4d4d4d" stroke-width="3" d="M116.33,-159C116.33,-159 81.67,-159 81.67,-159 76.83,-159 72,-154.17 72,-149.33 72,-149.33 72,-139.67 72,-139.67 72,-134.83 76.83,-130 81.67,-130 81.67,-130 116.33,-130 116.33,-130 121.17,-130 126,-134.83 126,-139.67 126,-139.67 126,-149.33 126,-149.33 126,-154.17 121.17,-159 116.33,-159"/>
<text text-anchor="middle" x="99" y="-138.9" font-family="Helvetica,sans-Serif" font-size="22.00">{T}</text>
</g>
<!-- 1&#45;&gt;3 -->
<g id="edge3" class="edge">
<title>1&#45;&gt;3</title>
<path fill="none" stroke="#4d4d4d" stroke-width="1.5" d="M127.97,-194.83C123.07,-186.49 116.72,-175.67 111.21,-166.28"/>
<polygon fill="#4d4d4d" stroke="#4d4d4d" stroke-width="1.5" points="113.48,-164.62 107.01,-159.14 108.65,-167.46 113.48,-164.62"/>
</g>
<!-- 4 -->
<g id="node5" class="node">
<title>4</title>
<path fill="none" stroke="red" stroke-width="3" d="M189.83,-159C189.83,-159 154.17,-159 154.17,-159 149.33,-159 144.5,-154.17 144.5,-149.33 144.5,-149.33 144.5,-139.67 144.5,-139.67 144.5,-134.83 149.33,-130 154.17,-130 154.17,-130 189.83,-130 189.83,-130 194.67,-130 199.5,-134.83 199.5,-139.67 199.5,-139.67 199.5,-149.33 199.5,-149.33 199.5,-154.17 194.67,-159 189.83,-159"/>
<text text-anchor="middle" x="172" y="-138.9" font-family="Helvetica,sans-Serif" font-size="22.00">{C,T}</text>
</g>
<!-- 1&#45;&gt;4 -->
<g id="edge4" class="edge">
<title>1&#45;&gt;4</title>
<path fill="none" stroke="#4d4d4d" stroke-width="1.5" d="M143.81,-194.83C148.58,-186.49 154.76,-175.67 160.12,-166.28"/>
<polygon fill="#4d4d4d" stroke="#4d4d4d" stroke-width="1.5" points="162.67,-167.48 164.2,-159.14 157.8,-164.7 162.67,-167.48"/>
</g>
<!-- 2&#45;&gt;4 -->
<g id="edge5" class="edge">
<title>2&#45;&gt;4</title>
<path fill="none" stroke="#4d4d4d" stroke-width="1.5" d="M200.19,-194.83C195.42,-186.49 189.24,-175.67 183.88,-166.28"/>
<polygon fill="#4d4d4d" stroke="#4d4d4d" stroke-width="1.5" points="186.2,-164.7 179.8,-159.14 181.33,-167.48 186.2,-164.7"/>
</g>
<!-- 5 -->
<g id="node6" class="node">
<title>5</title>
<path fill="none" stroke="#4d4d4d" stroke-width="3" d="M262.33,-159C262.33,-159 227.67,-159 227.67,-159 222.83,-159 218,-154.17 218,-149.33 218,-149.33 218,-139.67 218,-139.67 218,-134.83 222.83,-130 227.67,-130 227.67,-130 262.33,-130 262.33,-130 267.17,-130 272,-134.83 272,-139.67 272,-139.67 272,-149.33 272,-149.33 272,-154.17 267.17,-159 262.33,-159"/>
<text text-anchor="middle" x="245" y="-138.9" font-family="Helvetica,sans-Serif" font-size="22.00">{G}</text>
</g>
<!-- 2&#45;&gt;5 -->
<g id="edge6" class="edge">
<title>2&#45;&gt;5</title>
<path fill="none" stroke="#4d4d4d" stroke-width="1.5" d="M216.03,-194.83C220.93,-186.49 227.28,-175.67 232.79,-166.28"/>
<polygon fill="#4d4d4d" stroke="#4d4d4d" stroke-width="1.5" points="235.35,-167.46 236.99,-159.14 230.52,-164.62 235.35,-167.46"/>
</g>
<!-- 7 -->
<g id="node8" class="node">
<title>7</title>
<path fill="none" stroke="blue" stroke-width="3" d="M44.33,-94C44.33,-94 9.67,-94 9.67,-94 4.83,-94 0,-89.17 0,-84.33 0,-84.33 0,-74.67 0,-74.67 0,-69.83 4.83,-65 9.67,-65 9.67,-65 44.33,-65 44.33,-65 49.17,-65 54,-69.83 54,-74.67 54,-74.67 54,-84.33 54,-84.33 54,-89.17 49.17,-94 44.33,-94"/>
<text text-anchor="middle" x="27" y="-73.9" font-family="Helvetica,sans-Serif" font-size="22.00">{A}</text>
</g>
<!-- 3&#45;&gt;7 -->
<g id="edge8" class="edge">
<title>3&#45;&gt;7</title>
<path fill="none" stroke="#4d4d4d" stroke-width="1.5" d="M83.38,-129.83C73.28,-121 60,-109.37 48.86,-99.63"/>
<polygon fill="#4d4d4d" stroke="#4d4d4d" stroke-width="1.5" points="50.46,-97.3 42.59,-94.14 46.77,-101.52 50.46,-97.3"/>
</g>
<!-- 8 -->
<g id="node9" class="node">
<title>8</title>
<path fill="none" stroke="blue" stroke-width="3" d="M116.33,-94C116.33,-94 81.67,-94 81.67,-94 76.83,-94 72,-89.17 72,-84.33 72,-84.33 72,-74.67 72,-74.67 72,-69.83 76.83,-65 81.67,-65 81.67,-65 116.33,-65 116.33,-65 121.17,-65 126,-69.83 126,-74.67 126,-74.67 126,-84.33 126,-84.33 126,-89.17 121.17,-94 116.33,-94"/>
<text text-anchor="middle" x="99" y="-73.9" font-family="Helvetica,sans-Serif" font-size="22.00">{T}</text>
</g>
<!-- 3&#45;&gt;8 -->
<g id="edge9" class="edge">
<title>3&#45;&gt;8</title>
<path fill="none" stroke="#4d4d4d" stroke-width="1.5" d="M99,-129.83C99,-121.82 99,-111.52 99,-102.41"/>
<polygon fill="#4d4d4d" stroke="#4d4d4d" stroke-width="1.5" points="101.8,-102.14 99,-94.14 96.2,-102.14 101.8,-102.14"/>
</g>
<!-- 6 -->
<g id="node7" class="node">
<title>6</title>
<path fill="none" stroke="#4d4d4d" stroke-width="3" d="M189.83,-94C189.83,-94 154.17,-94 154.17,-94 149.33,-94 144.5,-89.17 144.5,-84.33 144.5,-84.33 144.5,-74.67 144.5,-74.67 144.5,-69.83 149.33,-65 154.17,-65 154.17,-65 189.83,-65 189.83,-65 194.67,-65 199.5,-69.83 199.5,-74.67 199.5,-74.67 199.5,-84.33 199.5,-84.33 199.5,-89.17 194.67,-94 189.83,-94"/>
<text text-anchor="middle" x="172" y="-73.9" font-family="Helvetica,sans-Serif" font-size="22.00">{C,T}</text>
</g>
<!-- 4&#45;&gt;6 -->
<g id="edge7" class="edge">
<title>4&#45;&gt;6</title>
<path fill="none" stroke="#4d4d4d" stroke-width="1.5" d="M172,-129.83C172,-121.82 172,-111.52 172,-102.41"/>
<polygon fill="#4d4d4d" stroke="#4d4d4d" stroke-width="1.5" points="174.8,-102.14 172,-94.14 169.2,-102.14 174.8,-102.14"/>
</g>
<!-- 11 -->
<g id="node12" class="node">
<title>11</title>
<path fill="none" stroke="blue" stroke-width="3" d="M262.33,-94C262.33,-94 227.67,-94 227.67,-94 222.83,-94 218,-89.17 218,-84.33 218,-84.33 218,-74.67 218,-74.67 218,-69.83 222.83,-65 227.67,-65 227.67,-65 262.33,-65 262.33,-65 267.17,-65 272,-69.83 272,-74.67 272,-74.67 272,-84.33 272,-84.33 272,-89.17 267.17,-94 262.33,-94"/>
<text text-anchor="middle" x="245" y="-73.9" font-family="Helvetica,sans-Serif" font-size="22.00">{G}</text>
</g>
<!-- 5&#45;&gt;11 -->
<g id="edge12" class="edge">
<title>5&#45;&gt;11</title>
<path fill="none" stroke="#4d4d4d" stroke-width="1.5" d="M245,-129.83C245,-121.82 245,-111.52 245,-102.41"/>
<polygon fill="#4d4d4d" stroke="#4d4d4d" stroke-width="1.5" points="247.8,-102.14 245,-94.14 242.2,-102.14 247.8,-102.14"/>
</g>
<!-- 12 -->
<g id="node13" class="node">
<title>12</title>
<path fill="none" stroke="blue" stroke-width="3" d="M334.33,-94C334.33,-94 299.67,-94 299.67,-94 294.83,-94 290,-89.17 290,-84.33 290,-84.33 290,-74.67 290,-74.67 290,-69.83 294.83,-65 299.67,-65 299.67,-65 334.33,-65 334.33,-65 339.17,-65 344,-69.83 344,-74.67 344,-74.67 344,-84.33 344,-84.33 344,-89.17 339.17,-94 334.33,-94"/>
<text text-anchor="middle" x="317" y="-73.9" font-family="Helvetica,sans-Serif" font-size="22.00">{G}</text>
</g>
<!-- 5&#45;&gt;12 -->
<g id="edge13" class="edge">
<title>5&#45;&gt;12</title>
<path fill="none" stroke="#4d4d4d" stroke-width="1.5" d="M260.62,-129.83C270.72,-121 284,-109.37 295.14,-99.63"/>
<polygon fill="#4d4d4d" stroke="#4d4d4d" stroke-width="1.5" points="297.23,-101.52 301.41,-94.14 293.54,-97.3 297.23,-101.52"/>
</g>
<!-- 9 -->
<g id="node10" class="node">
<title>9</title>
<path fill="none" stroke="blue" stroke-width="3" d="M153.33,-29C153.33,-29 118.67,-29 118.67,-29 113.83,-29 109,-24.17 109,-19.33 109,-19.33 109,-9.67 109,-9.67 109,-4.83 113.83,0 118.67,0 118.67,0 153.33,0 153.33,0 158.17,0 163,-4.83 163,-9.67 163,-9.67 163,-19.33 163,-19.33 163,-24.17 158.17,-29 153.33,-29"/>
<text text-anchor="middle" x="136" y="-8.9" font-family="Helvetica,sans-Serif" font-size="22.00">{T}</text>
</g>
<!-- 6&#45;&gt;9 -->
<g id="edge10" class="edge">
<title>6&#45;&gt;9</title>
<path fill="none" stroke="#4d4d4d" stroke-width="1.5" d="M164.19,-64.83C159.42,-56.49 153.24,-45.67 147.88,-36.28"/>
<polygon fill="#4d4d4d" stroke="#4d4d4d" stroke-width="1.5" points="150.2,-34.7 143.8,-29.14 145.33,-37.48 150.2,-34.7"/>
</g>
<!-- 10 -->
<g id="node11" class="node">
<title>10</title>
<path fill="none" stroke="blue" stroke-width="3" d="M225.33,-29C225.33,-29 190.67,-29 190.67,-29 185.83,-29 181,-24.17 181,-19.33 181,-19.33 181,-9.67 181,-9.67 181,-4.83 185.83,0 190.67,0 190.67,0 225.33,0 225.33,0 230.17,0 235,-4.83 235,-9.67 235,-9.67 235,-19.33 235,-19.33 235,-24.17 230.17,-29 225.33,-29"/>
<text text-anchor="middle" x="208" y="-8.9" font-family="Helvetica,sans-Serif" font-size="22.00">{C}</text>
</g>
<!-- 6&#45;&gt;10 -->
<g id="edge11" class="edge">
<title>6&#45;&gt;10</title>
<path fill="none" stroke="#4d4d4d" stroke-width="1.5" d="M179.81,-64.83C184.58,-56.49 190.76,-45.67 196.12,-36.28"/>
<polygon fill="#4d4d4d" stroke="#4d4d4d" stroke-width="1.5" points="198.67,-37.48 200.2,-29.14 193.8,-34.7 198.67,-37.48"/>
</g>
</g>
</svg>
